<?xml version="1.0" encoding="iso-8859-1"?>
<!-- Generator: Adobe Illustrator 24.1.1, SVG Export Plug-In . SVG Version: 6.00 Build 0)  -->
<svg version="1.1" id="Capa_1" xmlns="http://www.w3.org/2000/svg" xmlns:xlink="http://www.w3.org/1999/xlink" x="0px" y="0px"
	 viewBox="0 0 269.76 34.518" style="enable-background:new 0 0 269.76 34.518;" xml:space="preserve">
<path style="fill:#F3D617;" d="M269.76,18.251c-137.298,36.6-269.76,0-269.76,0V0.011h269.76
	C269.76,0.011,269.76-1.069,269.76,18.251z"/>
<g>
	<path d="M144.578,11.624l-1.521-1.274l-0.346-1.953c-0.115-0.649-0.677-1.12-1.336-1.12c0,0-0.001,0-0.001,0l-1.984,0.002
		l-1.521-1.274c-0.506-0.424-1.239-0.423-1.744,0.002l-1.518,1.276l-1.984,0.002c-0.66,0.001-1.221,0.473-1.335,1.122l-0.343,1.954
		l-1.518,1.277c-0.505,0.425-0.632,1.147-0.301,1.718l0.993,1.717l-0.343,1.954c-0.114,0.65,0.253,1.285,0.874,1.51l1.673,0.607
		l0.006,8.328c0,0.507,0.279,0.967,0.728,1.202c0.199,0.104,0.414,0.155,0.629,0.155c0.271,0,0.541-0.082,0.773-0.243l2.528-1.755
		l2.528,1.755c0.416,0.289,0.954,0.323,1.403,0.088c0.449-0.235,0.728-0.696,0.728-1.202v-8.318l1.722-0.629
		c0.62-0.226,0.986-0.862,0.871-1.511l-0.346-1.953l0.99-1.719C145.211,12.77,145.083,12.048,144.578,11.624L144.578,11.624z
		 M137.373,25.449c-0.233-0.161-0.541-0.161-0.774,0l-2.915,2.023c0,0,0,0,0,0l-0.005-6.305c0.258,0.283,0.623,0.442,1.001,0.442
		c0.155,0,0.313-0.027,0.466-0.083l1.863-0.68l1.865,0.677c0.502,0.182,1.048,0.052,1.413-0.307l0,6.256L137.373,25.449z
		 M142.716,14.383c-0.159,0.276-0.216,0.601-0.16,0.914l0.346,1.953l-1.864,0.68c-0.234,0.085-0.438,0.234-0.592,0.426
		c-0.007,0.009-0.014,0.018-0.021,0.027c-0.035,0.046-0.068,0.093-0.097,0.144l-0.99,1.719c0,0,0,0,0,0l-1.865-0.677
		c-0.299-0.109-0.629-0.108-0.928,0.001l-1.863,0.68l-0.993-1.717c-0.053-0.092-0.118-0.177-0.191-0.253
		c-0.007-0.007-0.013-0.014-0.02-0.021c-0.141-0.142-0.311-0.253-0.502-0.322l-1.865-0.677l0.343-1.954
		c0.055-0.314-0.003-0.638-0.162-0.914l-0.993-1.717l1.518-1.277c0.244-0.205,0.408-0.491,0.463-0.804l0.343-1.954l1.984-0.002
		c0.319,0,0.628-0.113,0.872-0.318l1.518-1.276l1.521,1.274c0.244,0.204,0.553,0.317,0.871,0.317h0.001l1.984-0.002l0.346,1.953
		c0.056,0.314,0.221,0.599,0.465,0.803l1.521,1.274L142.716,14.383z"/>
	<path d="M137.002,9.907c-2.157,0-3.912,1.755-3.912,3.912s1.755,3.912,3.912,3.912s3.912-1.755,3.912-3.912
		S139.16,9.907,137.002,9.907z M137.002,16.375c-1.409,0-2.555-1.146-2.555-2.555s1.146-2.555,2.555-2.555
		c1.409,0,2.555,1.146,2.555,2.555S138.412,16.375,137.002,16.375z"/>
</g>
</svg>
