<?xml version="1.0" encoding="utf-8"?>
<!-- Generator: Adobe Illustrator 24.1.1, SVG Export Plug-In . SVG Version: 6.00 Build 0)  -->
<svg version="1.1" id="Capa_1" xmlns="http://www.w3.org/2000/svg" xmlns:xlink="http://www.w3.org/1999/xlink" x="0px" y="0px"
	 viewBox="0 0 929.7 818.7" style="enable-background:new 0 0 929.7 818.7;" xml:space="preserve">
<style type="text/css">
	.st0{opacity:0.1;fill:#6C63FF;enable-background:new    ;}
	.st1{fill:none;}
	.st2{opacity:0.1;}
	.st3{fill:#3A3768;}
	.st4{fill:#6C63FF;}
	.st5{fill:#E6E8EC;}
	.st6{fill:#FEC2BE;}
	.st7{opacity:0.1;enable-background:new    ;}
	.st8{fill:#4C4981;}
	.st9{opacity:5.000000e-02;enable-background:new    ;}
	.st10{fill:#CA8496;}
	.st11{fill:#CEDDF9;}
	.st12{fill:#FFFFFF;}
	.st13{fill:#FF718D;}
	.st14{fill:#9A5E7F;}
</style>
<g id="undraw_product_teardown_elol" transform="translate(0 -0.001)">
	<ellipse id="Elipse_56" class="st0" cx="770" cy="755.6" rx="111.2" ry="19.1"/>
	<ellipse id="Elipse_57" class="st0" cx="393.7" cy="734.3" rx="176" ry="12.4"/>
	<path id="Trazado_166" class="st0" d="M287.6,32c31.5-28.1,81-33.8,126-31.6c141.4,7,269.1,75.3,379.6,152.5
		c40,28,79.3,58.1,105.3,96.6c52.8,78.4,37.2,187-36.3,251.5c-25,22-55.3,38.8-86.4,53.7c-55.3,26.5-115,47.9-177.7,53.9
		c-44.8,4.3-90.1,0.8-134.6-5.2c-124.3-16.9-246.3-54.2-348.6-117.9c-44.9-28-87.1-62.8-105.6-108S2.6,275,48.4,248.2
		c19-11.1,41.6-16.1,63.8-20.8c32.6-6.9,65.8-13.7,95.3-27.8c30.4-14.5,66.4-42.6,60.4-74.8C261.3,90.3,256.1,60.1,287.6,32z"/>
	<line id="Línea_2" class="st1" x1="164" y1="176.9" x2="156.5" y2="176.9"/>
	<g id="Grupo_23" class="st2">
		<path id="Trazado_167" d="M406.6,646.3c3.8,6.5,9.9,10.7,16.6,10.7c11.6,0,21-12.3,21-27.4s-9.5-27.3-21-27.3
			c-5.5,0-10.4,2.7-14.2,7.2c-1.4,1.7-2.6,3.6-3.6,5.6l-0.2,1.2c0,0-4.5,3.8-10.6,0.3v-88.8h-86.7c-1.4-1.9-1.8-4.3-1-6.5
			c0.6-2,2-3.7,3.9-4.8c6.5-3.8,10.8-9.9,10.8-16.6c0-11.6-12.3-21-27.4-21s-27.4,9.4-27.4,21c0,5.5,2.7,10.4,7.2,14.2
			c1.7,1.4,3.6,2.6,5.6,3.6l0.1,0.2c2.7,2.6,3.4,6.7,1.7,10h-39.1v164.5c0,21.5,17.5,39,39,39l0,0h113.5V644
			c1.9-1.8,4.6-2.4,7.1-1.5C403.9,643.1,405.6,644.5,406.6,646.3z"/>
		<path id="Trazado_169" d="M557.4,258.8c0-1.3-1-2.3-2.3-2.3h-1.4V254H553v-99.8c0-20.7-16.8-37.5-37.5-37.5c0,0,0,0,0,0H403v76
			c5.2-6.9,13.3-11,22-11.1c15.7,0,28.5,13.6,28.5,30.4s-12.7,30.4-28.5,30.4c-8.7,0-16.8-4.1-22-11v84.3h91
			c-6.7-5.2-10.6-13.1-10.7-21.5c0-15.6,13.6-28.3,30.3-28.3c7.4,0,14.7,2.6,20.4,7.3c11.5,9.2,13.4,26,4.2,37.6
			c-1.2,1.6-2.6,3-4.2,4.2v0.7h19.8v-0.1h3.7L557.4,258.8z"/>
		<path id="Trazado_170" d="M527.2,519.9v-10l0,0c0.4-0.6,0.8-1.2,1.1-1.9c1.3-2.4,2-5.2,2.1-8c0-1.9-0.3-3.7-0.9-5.4
			c-0.5-1.6-1.3-3-2.3-4.4l0,0c-4.6-6.6-13.7-11.2-24.2-11.2c-15.2,0-27.4,9.4-27.4,21c0,5.5,2.7,10.4,7.2,14.2
			c1.7,1.4,3.6,2.6,5.6,3.6l0.1,0.2c2.7,2.6,3.4,6.7,1.7,10h-88.2v82c5.1-6.9,13.2-10.9,21.8-11c15.6,0,28.2,13.6,28.2,30.4
			s-12.6,30.4-28.2,30.4c-8.6-0.1-16.6-4.1-21.8-11v66.2h101.2c13.3,0,24-10.7,24.1-24V528l0,0v162.8c0,13.3-10.8,24.1-24.1,24.1
			H401.9v16h105c21.5,0,39-17.5,39-39l0,0V528l0,0v-4.3h-18.7V519.9z"/>
	</g>
	<path id="Trazado_171" class="st3" d="M286.1,711.2c-13.3,0-24.1-10.8-24.1-24.1V523.8h-18.7v164.4c0,21.5,17.5,39,39,39l0,0h113.5
		v-16L286.1,711.2z"/>
	<path id="Trazado_172" class="st4" d="M402.8,638.5c2,0.6,3.7,2,4.8,3.9c3.8,6.5,9.9,10.7,16.6,10.7c11.6,0,21-12.3,21-27.4
		s-9.4-27.4-21-27.4c-5.5,0-10.4,2.7-14.2,7.2c-1.4,1.7-2.6,3.6-3.6,5.6l-0.2,1.2c0,0-4.5,3.8-10.6,0.3v-88.8h-86.7
		c-1.4-1.9-1.8-4.3-1-6.5c0.6-2,2-3.7,3.9-4.8c6.5-3.8,10.8-9.9,10.8-16.6c0-11.6-12.3-21-27.4-21s-27.4,9.4-27.4,21
		c0,5.5,2.7,10.4,7.2,14.2c1.7,1.4,3.6,2.6,5.6,3.6l0.1,0.2c2.7,2.6,3.4,6.7,1.7,10H262v163.4c0,13.3,10.8,24.1,24.1,24.1h109.8V640
		C397.7,638.2,400.4,637.6,402.8,638.5z"/>
	<path id="Trazado_173" class="st4" d="M401.9,525.7"/>
	<path id="Trazado_178" class="st3" d="M246,299.1c0-1.3-1-2.3-2.3-2.3c0,0,0,0,0,0h-0.2v14.9h2.5L246,299.1z"/>
	<path id="Trazado_179" class="st3" d="M243.4,194.4h-0.5c-1.3,0-2.3,1-2.3,2.3l0,0v20c0,1.3,1,2.3,2.3,2.3h0.6L243.4,194.4
		L243.4,194.4z"/>
	<path id="Trazado_180" class="st3" d="M242.7,239.4c-1.3,0-2.3,1-2.3,2.3v38.2c0,1.3,1,2.3,2.3,2.3h0.8v-42.8H242.7z"/>
	<path id="Trazado_181" class="st3" d="M243.5,297.1h-0.6c-1.3,0-2.3,1-2.3,2.3c0,0,0,0,0,0V312h3L243.5,297.1z"/>
	<path id="Trazado_182" class="st3" d="M243.5,152.2v42.2c1.2,0,2.2,1.1,2.2,2.3v20c0,1.2-1,2.2-2.2,2.3v20.4h0.4
		c1.3,0,2.3,1,2.3,2.3c0,0,0,0,0,0v38.2c0,1.3-1,2.3-2.3,2.3c0,0,0,0,0,0h-0.4v15h0.2c1.3,0,2.3,1,2.3,2.3V312h16.2V153.3
		c0-13.3,10.8-24.1,24-24.1h32.6v4.2c0,10.9,8.9,19.8,19.8,19.8H396v-13.1h-26.4c-2.1,0-3.8-1.7-3.9-3.9v-0.8c0-2.1,1.7-3.9,3.9-3.9
		H396v-18.4H282.5C260.9,113.2,243.5,130.7,243.5,152.2z"/>
	<path id="Trazado_183" class="st3" d="M245.7,216.7v-20c0-1.2-1-2.2-2.2-2.3V219C244.7,218.9,245.7,217.9,245.7,216.7z"/>
	<path id="Trazado_184" class="st3" d="M246.1,279.9v-38.2c0-1.3-1-2.3-2.3-2.3c0,0,0,0,0,0h-0.4v42.8h0.4
		C245.1,282.2,246.1,281.2,246.1,279.9C246.1,279.9,246.1,279.9,246.1,279.9L246.1,279.9z"/>
	<path id="Trazado_185" class="st4" d="M268.8,290.5c0-15.6,13.6-28.2,30.4-28.2s30.4,12.6,30.4,28.2c-0.1,8.4-4,16.4-10.8,21.5
		h77.1v-88.7c1.9-1.8,4.6-2.4,7.1-1.5c2,0.6,3.7,2,4.8,3.9c3.8,6.5,9.9,10.7,16.6,10.7c11.6,0,21-12.3,21-27.4s-9.4-27.4-21-27.4
		c-5.5,0-10.4,2.7-14.2,7.2c-1.4,1.7-2.6,3.6-3.6,5.6l-0.2,1.2c0,0-4.5,3.8-10.6,0.3v-42.7h-57.3c-10.9,0-19.8-8.9-19.8-19.8v-4.2
		h-32.6c-13.3,0-24.1,10.8-24.1,24.1c0,0,0,0,0,0V312h17.3C272.9,306.9,268.9,299,268.8,290.5z"/>
	<path id="Trazado_186" class="st5" d="M369.6,131.6c-2.1,0-3.9,1.7-3.9,3.9v0.9c0,2.1,1.7,3.9,3.9,3.9H396v-8.6L369.6,131.6z"/>
	<path id="Trazado_187" class="st3" d="M548,252.4v59.4h6.8V250h-3.7C549.4,250,548,251.1,548,252.4z"/>
	<rect id="Rectángulo_51" x="404" y="112.8" class="st3" width="8" height="18"/>
	<rect id="Rectángulo_52" x="404" y="139.8" class="st3" width="8" height="13"/>
	<rect id="Rectángulo_53" x="404" y="130.8" class="st5" width="8" height="9"/>
	<path id="Trazado_188" class="st3" d="M556.1,252.5h-1.9v59.2h4.2v-56.9C558.4,253.6,557.4,252.5,556.1,252.5z"/>
	<path id="Trazado_189" class="st3" d="M412,130.8c2.1,0.5,4,4.4,4,4.4v0.8c0,0-1.9,3.9-4,3.8l0,0v13h45.2
		c10.9,0,19.8-8.9,19.8-19.8v-4.2h34c13.3,0,24,10.8,24,24.1v116.5c11.5,9.2,13.4,26,4.2,37.6c-1.2,1.6-2.6,3-4.2,4.2v0.7h14v-58.7
		c0-0.2,0.1-0.3,0.3-0.3c0,0,0,0,0,0h4.7V150.3c0-20.7-16.8-37.5-37.5-37.5c0,0,0,0,0,0H411v18H412z M427.1,130.7
		c2.7,0,4.9,2.2,4.9,4.9s-2.2,4.9-4.9,4.9c-2.7,0-4.9-2.2-4.9-4.9c0,0,0,0,0,0C422.3,132.9,424.5,130.7,427.1,130.7z"/>
	<path id="Trazado_190" class="st4" d="M426,177.7c15.7,0,28.5,13.6,28.5,30.4s-12.7,30.4-28.5,30.4c-8.7,0-16.8-4.1-22-11v84.3h91
		c-6.7-5.2-10.6-13.1-10.7-21.5c0-15.6,13.6-28.3,30.3-28.3c7.5-0.1,14.7,2.6,20.4,7.4V152.8c0-13.3-10.7-24-24-24.1h-34v4.2
		c0,10.9-8.9,19.8-19.8,19.8H404v36C409.2,181.9,417.3,177.8,426,177.7z"/>
	<path id="Trazado_191" class="st5" d="M412,139.8c2.1,0,3.9-1.7,4-3.8v-0.8c-0.2-2.2-1.9-3.9-4-4.4h-1v9H412z"/>
	<circle id="Elipse_58" class="st5" cx="427.1" cy="135.5" r="4.9"/>
	<path id="Trazado_192" class="st3" d="M528.2,515.9v-10c4.3-5.9,4.3-13.8,0-19.6V515.9z"/>
	<rect id="Rectángulo_54" x="528.2" y="519.7" class="st3" width="18.7" height="4.3"/>
	<path id="Trazado_193" class="st4" d="M520.7,512.7c-1.9,1-3.3,2.7-3.9,4.8c-0.8,2.2-0.4,4.7,1.1,6.5h10.4v-4.3h-4
		c1.4-1.2,2.8-2.5,4-3.9v-10C526.2,508.7,523.7,511,520.7,512.7L520.7,512.7z"/>
	<path id="Trazado_194" class="st4" d="M524.2,519.7h4v-3.9C527,517.3,525.6,518.5,524.2,519.7z"/>
	<path id="Trazado_195" class="st3" d="M531.4,496.1c0-3.5-1.1-7-3.2-9.8v19.6C530.3,503,531.4,499.6,531.4,496.1z"/>
	<path id="Trazado_196" class="st3" d="M546.9,524v163.9c0,21.5-17.5,39-39,39l0,0h-105v-16h101.2c13.3,0,24.1-10.8,24.1-24.1V524
		H546.9z"/>
	<path id="Trazado_197" class="st4" d="M516.8,517.5c0.6-2,2-3.7,3.9-4.8c3-1.7,5.6-4,7.6-6.8v-19.6c-4.6-6.6-13.7-11.2-24.2-11.2
		c-15.2,0-27.4,9.4-27.4,21c0,5.5,2.7,10.4,7.2,14.2c1.7,1.4,3.6,2.6,5.6,3.6l0.1,0.2c2.7,2.6,3.4,6.7,1.7,10h-88.2v82
		c5.1-6.9,13.2-10.9,21.8-11c15.6,0,28.2,13.6,28.2,30.4s-12.6,30.4-28.2,30.4c-8.6-0.1-16.6-4.1-21.8-11v66.2h101.2
		c13.3,0,24-10.7,24.1-24V524h-10.4C516.4,522.1,516,519.7,516.8,517.5z"/>
	<path id="Trazado_200" class="st6" d="M650.6,410.3c7.7,2.9,25.6,3.2,33.6,3.2h3.9l5.1-10.4l-5.1-8.7c0,0-4.7-1.3-10.9-2.4
		c-9.2-1.6-21.7-2.9-27.7,0.8C639.5,399,640.6,406.5,650.6,410.3z"/>
	<path id="Trazado_201" class="st7" d="M684.2,413.5h3.9l5.1-10.4l-5.1-8.7c0,0-4.7-1.3-10.9-2.4
		C682.2,395.8,694.3,403.8,684.2,413.5z"/>
	<path id="Trazado_202" class="st8" d="M768.6,286.1l-2.2-2.6c0,0-11.6,18.3-12.8,25.3c-1.2,6.9-2.8,14.9-2.8,14.9s-2.9,9-4.8,13
		s-3.6,7.8-3.8,9.5c-0.2,1.7,0.7,5.5-2.9,8c-3.6,2.4-4.5,9-4.5,9s-13.2,12.8-20.1,13.1c-6.9,0.3-26.8,3.8-26.1,7.3
		c0.7,3.5-8.3,5.5-11.9,6.4c-3.6,0.9,23.4,11.2,7.6,24.6c0,0,10,2.1,11.1,4.5c1,2.4,11.6-1.4,11.6-1.4s2.3-5.4,10-5.7
		c7.8-0.3,11.8-3.8,11.8-4.3c0-0.5,7.8-4.8,12.2-6.1c4.4-1.2,10-1.7,10.2-2.9c0.2-1.2,26-112.5,26-112.5L768.6,286.1z"/>
	<path id="Trazado_203" class="st9" d="M768.6,286.1l-2.2-2.6c0,0-11.6,18.3-12.8,25.3c-1.2,6.9-2.8,14.9-2.8,14.9s-2.9,9-4.8,13
		s-3.6,7.8-3.8,9.5c-0.2,1.7,0.7,5.5-2.9,8c-3.6,2.4-4.5,9-4.5,9s-13.2,12.8-20.1,13.1c-6.9,0.3-26.8,3.8-26.1,7.3
		c0.7,3.5-8.3,5.5-11.9,6.4c-3.6,0.9,23.4,11.2,7.6,24.6c0,0,10,2.1,11.1,4.5c1,2.4,11.6-1.4,11.6-1.4s2.3-5.4,10-5.7
		c7.8-0.3,11.8-3.8,11.8-4.3c0-0.5,7.8-4.8,12.2-6.1c4.4-1.2,10-1.7,10.2-2.9c0.2-1.2,26-112.5,26-112.5L768.6,286.1z"/>
	<path id="Trazado_204" class="st10" d="M795.6,766.2c22.8,4.3,27-13.2,27-13.2s2.9-15.6,3.9-16.7c0.3-0.4,0.3-1,0.2-1.5l0,0
		c-0.6-2.6-1.7-5.1-3.3-7.3c-1.4-1.7-0.3-8.7-0.3-8.7l-26.5-6.7c0,0-2.3,5.3-2.6,7.8c-0.3,2.5-4.2,13.6-3.7,15.2
		c0.4,1.6-1.7,6.4-1.9,8.8c-0.3,2.5-3.5,6.1-3.7,7.4c-0.4,1.2-0.9,2.3-1.4,3.4c-0.7,1.7-1.3,3.5-1.7,5.3
		C780.1,765.3,795.6,766.2,795.6,766.2z"/>
	<path id="Trazado_205" class="st7" d="M795.6,766.2c22.8,4.3,27-13.2,27-13.2s2.9-15.6,3.9-16.7c0.3-0.4,0.3-1,0.2-1.5l-5.5,15.8
		c0,0-4.5,9.5-21.4,8c-9.6-0.8-14.3-2.6-16.6-4c-0.7,1.7-1.3,3.5-1.7,5.3C780.1,765.3,795.6,766.2,795.6,766.2z"/>
	<path id="Trazado_206" class="st7" d="M813.3,741.5c0,0-5.7,0.1-6.1-4.5L813.3,741.5z"/>
	<path id="Trazado_225" class="st11" d="M714.1,588.2c2.8,4.3,6.1,23,6.1,23s2.2,4.3,2.1,7.9c-0.1,3.6,2.1,10.3,2.1,10.3l7.3,26.9
		c0,0-0.8,7.1,1.9,12.2c2.7,5,2.5,3.5,1.2,12.3s1.6,17,6.2,19.6c4.7,2.6-2.1,8.7-2.1,8.7s29.8,8,36.1,3.1c6.2-4.9-3.2-29.3-3.2-29.3
		s1.6-20.5,0.5-23.5c-1-3-5.5-28.4-5.5-28.4s-2.7-11.6-1.7-13.5c1-1.9-0.6-7.5-0.6-7.5s-4.4-6.2-4-8.2s-1.3-5.4-1.3-5.4
		s13.2-20.3,12-24.1c-1.2-3.8,0.5-9.9,0.5-9.9l3.7-6.3c2.5-4.2,5.4-9.3,6.4-10.8c1.3-2,4.3-10.5,6.1-15.4l1.2-3.5
		c0,0,2.1,38.2,3.9,42c1.8,3.9,4.5,34.6,4.5,34.6c1,2.7,1.5,5.6,1.3,8.6c-0.3,4.8,4.2,25.7,4.2,25.7s1.9,14.8,0.6,18.7
		c-1.3,3.9-0.3,32.6-0.3,32.6s-7.1,5.6-9,9.9s0.3,15.9,0.3,15.9s20.8,10.4,29.9,7.7c9.2-2.7,5.4-18.4,5.4-18.4s6.2-10.4,6.2-14.4
		c0-4,2.3-16.3,2.3-16.3c7.9-14.5,4.8-49.8,6.1-52.7c1.3-2.9-2.7-13.5-6-18.3c-3.2-4.8-1.9-17.8,0-21.5c1.9-3.7-2-16.8-2-16.8
		s3.7-25.2,3.6-29.1c-0.1-3.9,3.2-15.4,3.2-15.4s3.4-6,2.6-7.8c-0.8-1.8,2.6-6.5,1.7-8.6c-0.9-2.1,0.8-8.4,2.5-12.2
		c0.9-1.9,1.9-7.2,2.8-11.9c0.8-4.5,1.4-8.4,1.4-8.4l-21.4-17.3l-53.5-14l-20.1-6.5l-19.6,30.9c-1.4,2.3-2.7,4.6-3.8,7
		c-1.5,3.2-2.9,6.8-2.7,9c0.3,2.8-0.3,5.6-1.8,8c0,0-11.7,37-11.4,47.6c0.3,10.6-4.2,34-4.2,34S711.2,583.9,714.1,588.2z"/>
	<path id="Trazado_226" class="st6" d="M793.1,287.4c0.8-0.3,57.3-23.7,49.5-28.3c-4.6-2.8-10.3-14.4-14.2-23.5
		c-2.7-6.4-4.6-11.5-4.6-11.5s-45.3-8-29.1,19.7c2.6,4.3,4.5,8.9,5.7,13.7C805.1,276.4,793.5,287,793.1,287.4z"/>
	<path id="Trazado_227" class="st7" d="M794.8,243.8c2.6,4.3,4.5,8.9,5.7,13.7c11.7-0.8,22-8.1,26.8-18.8c0.4-1,0.8-2,1.2-3.1
		c-2.7-6.4-4.6-11.5-4.6-11.5S778.6,216,794.8,243.8z"/>
	<path id="Trazado_228" class="st6" d="M766.6,224.8c0,17.5,14.2,31.6,31.7,31.6c17.5,0,31.6-14.2,31.6-31.7
		c0-17.5-14.2-31.6-31.7-31.6c-14.1,0-26.5,9.3-30.4,22.9C767,218.9,766.6,221.8,766.6,224.8z"/>
	<path id="Trazado_229" class="st7" d="M736.1,470.1c3.3,3,4.6,8.7,4.6,8.7s15.6,10.6,14.5,3.9s8-34,8-34l-1,37.1
		c0,0,49.8-2.3,53.5-6c3.6-3.6,24.9-10.6,24.9-10.6s6.5,5.2,12.5,9.2c0.8-4.5,1.4-8.4,1.4-8.4l-21.4-17.3l-53.5-14l-20.1-6.5
		l-19.6,30.9C738.5,465.5,737.2,467.8,736.1,470.1L736.1,470.1z"/>
	<path id="Trazado_230" class="st12" d="M734.4,467.2c4.2,2.6,5.7,9.6,5.7,9.6s15.6,10.6,14.5,3.9c-1-6.7,8-34,8-34l-1,37.1
		c0,0,49.8-2.3,53.5-6s24.9-10.6,24.9-10.6s18.4,14.8,21.8,13.5c3.4-1.3-6-26.5-6-26.5l-9.6-147.4c0,0,2.6-43.9-1.3-45.4
		c-0.6-0.2-1.2-0.6-1.6-1c-2.6-2.3-3.3-7-3.6-10.9c-0.3-4.7-6.5-2.3-6.5-2.3l3.6,4.7l-32.2,19.6l-0.3,0.2c-1.3-0.7-2.5-1.2-3.9-1.7
		c-2.8-1.1-6.6-2.1-9.1-1.1c-1.4,0.7-2.6,1.8-3.4,3.1c-1.8,2.8-3.3,5.7-4.4,8.9l-11.6,19.7c0,0-6,26.2-6,27.3s-1.8,24.9-3.9,27.5
		c-2.1,2.6-4.2,15.6-3.4,19.5c0.8,3.9-1.3,18.4-1.3,18.4c-8.6,7-13,30.9-13,30.9s-13.5,26.8-14.6,29.8
		C728.9,456.8,730.3,464.7,734.4,467.2z"/>
	<path id="Trazado_231" class="st7" d="M804.8,272.4c3.2,4.7,12.3,11.2,12.3,11.2l26.3-22.2c-2.6-2.3-3.3-7-3.6-10.9
		c-0.3-4.7-6.5-2.3-6.5-2.3l0.8,0.9c1.4,1.8,1.1,4.5-0.7,5.9c-0.1,0.1-0.3,0.2-0.4,0.3L804.8,272.4z"/>
	<path id="Trazado_232" class="st12" d="M804.8,271.4c3.2,4.7,12.3,11.2,12.3,11.2l26.3-22.2c-2.6-2.3-3.3-7-3.6-10.9
		c-0.3-4.7-6.5-2.3-6.5-2.3l0.8,0.9c1.4,1.8,1.1,4.5-0.7,5.9c-0.1,0.1-0.3,0.2-0.4,0.3L804.8,271.4z"/>
	<path id="Trazado_233" class="st7" d="M792.6,274.9c3.4,4.1,8.2,8.7,8,6.4c-0.2-2.3,2.9-7.4,4.8-9.7c-3.1-1-6.4-0.9-9.4,0.3
		C794.6,272.5,793.5,273.5,792.6,274.9z"/>
	<path id="Trazado_234" class="st12" d="M792.1,273.3c3.4,4.1,8.2,8.7,8,6.4s2.6-6.1,4.5-8.3c-2.8-1.1-6.6-2.1-9.1-1.1
		C794.1,270.9,793,272,792.1,273.3L792.1,273.3z"/>
	<circle id="Elipse_59" class="st13" cx="800.6" cy="292.8" r="2.1"/>
	<circle id="Elipse_60" class="st13" cx="784.9" cy="348.9" r="2.1"/>
	<circle id="Elipse_61" class="st13" cx="767.1" cy="405.6" r="2.1"/>
	<circle id="Elipse_62" class="st13" cx="766.5" cy="467.4" r="2.1"/>
	<circle id="Elipse_63" class="st13" cx="791.5" cy="319.3" r="2.1"/>
	<circle id="Elipse_64" class="st13" cx="777.4" cy="376.9" r="2.1"/>
	<circle id="Elipse_65" class="st13" cx="763.8" cy="433.5" r="2.1"/>
	<circle id="Elipse_66" class="st13" cx="766.9" cy="474.3" r="2.1"/>
	<path id="Trazado_235" class="st7" d="M843.4,261.6c0,0-0.3-3.1,4.1,2.3c4.5,5.4,13,10,13,10s19.2,13.5,20.2,19.7
		c1,6.2,7.3,33.2,4,42.2s-28.4,52.1-28.4,52.1s6.5,7.8,5,17c-1.5,9.2-3.5,21.8-2.6,24.6c0.9,2.8-1,9.7,1.9,12.1s6.1,6.5-3.1,12.1
		c0,0-1.7,4.7-0.2,5.7c1.6,1-23,11.8-32.7,6.1s-27.1-51.4-27.5-61.6c-0.4-10.2,5.4-44,8.5-51.9c3.1-7.9,12.5-38.9,16.4-45.8
		S843.4,261.6,843.4,261.6z"/>
	<path id="Trazado_236" class="st8" d="M844.4,261.6c0,0-0.3-3.1,4.2,2.3s13,10,13,10s19.2,13.5,20.2,19.7c1,6.2,7.3,33.2,4,42.2
		s-28.4,52.1-28.4,52.1s6.5,7.8,5,17c-1.5,9.2-3.5,21.8-2.6,24.6c0.9,2.8-1,9.7,1.9,12.1c2.9,2.4,6.1,6.5-3.1,12.1
		c0,0-1.7,4.7-0.2,5.7c1.6,1-23,11.8-32.7,6.1s-27.1-51.4-27.5-61.6c-0.4-10.2,5.4-44,8.5-51.9c3.1-7.9,12.5-38.9,16.4-45.8
		S844.4,261.6,844.4,261.6z"/>
	<path id="Trazado_237" class="st7" d="M851.3,291.1c0,0-14.9,16.4-14.4,27.3C837,318.4,836.8,300.8,851.3,291.1z"/>
	<path id="Trazado_238" class="st7" d="M830.7,318.1c0,0.5-10,37.9-9.5,42.6c0.5,4.7-2.9,18.5-2.9,18.5l-4.7-1.2
		c0,0,3.6-19.2,4.3-26.3S830.7,318.1,830.7,318.1z"/>
	<path id="Trazado_239" class="st7" d="M826.7,424.7c0.3,0.5,23.7,27,17.1,28.9C837.3,455.5,826.7,424.7,826.7,424.7z"/>
	<path id="Trazado_240" class="st7" d="M846,417.9c0.5,0.3,9.4,19,10.4,14s-7.6,13.7-9-0.2L846,417.9z"/>
	<path id="Trazado_241" class="st7" d="M801.1,267.5c0,0-9.6-5.9-21.8,9.2c0,0-8.8,5-11.4,6.2c-2.6,1.2-5.5,33.4-5.5,33.4
		s-5.7,13.8-4.2,21.8c1.6,8-4.5,35.3-4.5,35.3s-10,49.1-9.7,50.5c0.3,1.4,10.2-15.4,10-23.7c-0.2-8.3,8.3-34.3,9.5-35.8
		c1.2-1.6,9.5-46,9.5-46s6.7-18.9,11.1-25.1s9.7-18,11.9-20.1c1.6-1.4,3.4-2.6,5.4-3.5L801.1,267.5z"/>
	<path id="Trazado_242" class="st8" d="M801.2,267.5c0,0-10.8-5.9-22.9,9.2c0,0-8.8,5-11.4,6.2c-2.6,1.2-5.5,33.4-5.5,33.4
		s-5.7,13.8-4.2,21.8c1.6,8-4.5,35.3-4.5,35.3s-10,49.1-9.7,50.5s10.2-15.4,10-23.7s8.3-34.3,9.5-35.8c1.2-1.6,9.5-46,9.5-46
		s6.7-18.9,11.1-25.1s9.7-18,11.9-20.1c2.2-2.1,6.4-3.5,6.4-3.5L801.2,267.5z"/>
	<path id="Trazado_243" class="st6" d="M753.7,375.7c0,0-20.6-13.5-30.5-6.8c-10,6.7-26.2,16.1-10.2,22.9c16,6.8,38.1,5.5,38.1,5.5
		L753.7,375.7z"/>
	<path id="Trazado_244" class="st7" d="M768.1,505.9c3.1,6.5,5.6,39.7,7.3,50.1c2.5-4.2,5.4-9.3,6.4-10.8c1.3-2,4.3-10.5,6.1-15.4
		c-2-4.8-7.4-18.4-7.4-23.4c0-6.1-9.9-13.8-9.9-13.8S764.4,498.1,768.1,505.9z"/>
	<path id="Trazado_245" class="st7" d="M834.2,607.5c0,0-22.8-9.7-29.6-2.8C797.9,611.6,834.2,607.5,834.2,607.5z"/>
	<path id="Trazado_246" class="st7" d="M821.4,611.4c0,0,23.1,13,15.2,15.1C828.7,628.7,821.4,611.4,821.4,611.4z"/>
	<path id="Trazado_247" class="st7" d="M752.4,600.1c0,0,9.9,0.6,6.1,2.6C754.7,604.6,752.4,600.1,752.4,600.1z"/>
	<path id="Trazado_248" class="st7" d="M740,603.1c0.1,0.6,28.7,9.9,23.1,14C757.5,621.3,740,603.1,740,603.1z"/>
	<path id="Trazado_249" class="st7" d="M830.9,682.5c-4.3-0.7-28.2-11.7-18.8-3.7S830.9,682.5,830.9,682.5z"/>
	<path id="Trazado_250" class="st7" d="M819,691.2c0,0-2.1,8-10,7S819,691.2,819,691.2z"/>
	<path id="Trazado_251" class="st7" d="M825.7,707.5c-1.4-0.4-18.4-8.2-18.8-4.5s16.2,10,17.5,8C825.1,710,825.6,708.8,825.7,707.5z
		"/>
	<path id="Trazado_252" class="st7" d="M770.6,698.2c-2.1-0.1-21.5-6.4-25.4-0.8L770.6,698.2z"/>
	<path id="Trazado_253" class="st7" d="M753,701.8c0,0-3.4-3-6.7-1.4C742.9,702,753,701.8,753,701.8z"/>
	<path id="Trazado_254" class="st7" d="M796.1,734c-0.4,2.3-2.2,4-4.4,4.5L796.1,734z"/>
	<path id="Trazado_255" class="st10" d="M697.1,746.2c1.3,5.3,19.5,5.8,28.2,4.4c8.7-1.4,26.7-6.6,26.7-6.6s18.9-1.8,24.5-4.1
		c5.6-2.3,1.2-8.3,1.2-8.3V731c0.1-2.2,0.5-10-0.8-12.2c-1.6-2.5-0.6-10.5-0.6-10.5s-26.9,5.2-27.4,2.7c-0.5-2.5-4.7-6-6.6-6.7
		s-3.4,6.5-3.4,6.5s-12.2,10.4-13,14.1c-0.8,3.8-9.4,5.7-9.4,5.7s-13,3.6-16.4,5.4c-2,0.9-3.4,2.9-3.6,5
		C696.4,742.8,696.6,744.6,697.1,746.2L697.1,746.2z"/>
	<path id="Trazado_256" class="st7" d="M697.1,746.2c1.3,5.3,19.5,5.8,28.2,4.4c8.7-1.4,26.7-6.6,26.7-6.6s18.9-1.8,24.5-4.1
		c5.6-2.3,1.2-8.3,1.2-8.3V731l-27.1,6c0,0-13.4,5.7-21.9,5.7c-7.5,0-24.2,3.1-32-1.6C696.4,742.8,696.6,744.6,697.1,746.2
		L697.1,746.2z"/>
	<path id="Trazado_257" class="st7" d="M733.8,725.7c0,0,1.3,8.6,6.5,11.4L733.8,725.7z"/>
	<path id="Trazado_258" class="st7" d="M767.9,216c0.5,0.3,1,0.5,1.5,0.6c2.4,0.7,4.8-1,7-2.3s5.1-2.3,7-0.6c2.4,2.2,0.7,7,3.2,9.1
		c1.6,1.4,4.1,0.9,5.9,2c1.8,1.1,2.3,3.6,2.8,5.7s1.3,4.5,3.4,5.1c2.1,0.6,4-0.7,6-0.7c0.4,0,0.9,0.1,1.2-0.2
		c0.2-0.3,0.3-0.6,0.2-0.9c-0.3-2.5,0-5.1,0.7-7.5c0.8-2.4,2.8-4.6,5.3-4.9c3.6-0.6,6.7,2.6,8.8,5.6c2.3,3.2,4.3,6.5,6.1,9.9
		c0.1,0.2,0.2,0.4,0.3,0.7c7.1-16-0.1-34.7-16.1-41.8c-16-7.1-34.7,0.1-41.8,16.1C768.8,213.3,768.3,214.7,767.9,216L767.9,216z"/>
	<path id="Trazado_259" class="st14" d="M820.8,226.5c-2.1-3-5.2-6.2-8.9-5.6c-2.5,0.4-4.4,2.5-5.3,4.9c-0.7,2.4-0.9,5-0.7,7.5
		c0.1,0.3,0,0.7-0.2,0.9c-0.3,0.3-0.8,0.3-1.2,0.2c-2-0.1-4.1,1.2-6,0.7c-2-0.6-3-3-3.4-5.1s-0.9-4.5-2.8-5.7
		c-1.8-1.2-4.3-0.6-5.9-2c-2.5-2.1-0.7-6.9-3.2-9.1c-1.9-1.7-4.9-0.7-7,0.6s-4.5,2.9-7,2.3c-0.8-0.2-1.6-0.7-2.4-1
		c-3.8-1.5-8.8,1-12-1.6c-1.1-1.1-2-2.6-2.4-4.1c-0.9-2.1-1.5-4.3-1.7-6.6c-0.3-2.3,0.4-4.6,1.8-6.4c2.1-2.4,5.5-3,8.2-4.8
		c2.2-1.5,3.7-3.9,5.2-6.2c1.5-2.3,2.9-4.7,5.1-6.3c2.2-1.6,5.2-2.4,7.6-1.2c0.8,0.5,1.6,0.9,2.5,1.2c1,0,1.9-0.3,2.8-0.8
		c9-4.2,19.5-3.5,29.4-2.2c3.9,0.5,8,1.1,11.6,2.8c3.6,1.7,6.8,4.7,7.8,8.5c0.8,3.1,0.2,6.4,1.2,9.4c0.7,2,2,3.7,2.8,5.8
		c2.1,5.5-0.4,11.5-1.5,17.2c-1.2,6.3-0.6,13.1-3.3,19.1c-0.5,1.2-1.1,3.2-2.4,2.5c-0.9-0.6-1.9-3.9-2.5-4.9
		C825.1,233,823.1,229.7,820.8,226.5L820.8,226.5z"/>
	<path id="Trazado_260" class="st7" d="M877.8,327.9l4.7,13.3c0,0-11.1,41.2-16.3,49.8s-12.8,19.7-12.8,19.7s-12.8,6.4-27.7,3.5
		s-58.3-10.7-58.3-10.7s-3.6,0.7-5.5-2.1c-1.9-2.8-11.8-4.2-11.8-4.2s-11.4-16.6,2.6-23.5c0,0,1.7,3.8,9.2,1.2s9.7,2.1,9.7,2.1
		s12.2,2.4,18.9,1.6c6.7-0.9,23.5-1.2,25.3-2.6c0.9-0.8,2.3-0.7,3.1,0.2c0,0,4.1-1.6,5.5-3.1c1.4-1.6,3.3,1.7,3.3,1.7
		s2.4-1.4,1.7-3.1c-0.7-1.7,2.2-8.3,2.2-8.3s1.4-4.3,0.5-7.8c-0.9-3.5,4.3-15.9,4.3-15.9c0.1-2.1-0.2-4.2-0.7-6.2
		c-0.9-3.1,6.5-9.4,6.5-9.4s7.3-35.3,22.7-23.7C880.4,312,877.8,327.9,877.8,327.9z"/>
	<path id="Trazado_261" class="st8" d="M878.8,327.9l4.7,13.3c0,0-11.1,41.2-16.3,49.8c-5.2,8.7-12.8,19.7-12.8,19.7
		s-12.8,6.4-27.7,3.5c-14.9-2.9-58.3-10.7-58.3-10.7s-3.6,0.7-5.5-2.1c-1.9-2.8-11.8-4.2-11.8-4.2s-11.4-16.6,2.6-23.5
		c0,0,1.7,3.8,9.2,1.2s9.7,2.1,9.7,2.1s12.2,2.4,18.9,1.6c6.7-0.9,23.5-1.2,25.3-2.6c0.9-0.8,2.3-0.7,3.1,0.2c0,0,4.1-1.6,5.5-3.1
		c1.4-1.6,3.3,1.7,3.3,1.7s2.4-1.4,1.7-3.1c-0.7-1.7,2.2-8.3,2.2-8.3s1.4-4.3,0.5-7.8s4.3-15.9,4.3-15.9c0.1-2.1-0.2-4.2-0.7-6.2
		c-0.9-3.1,6.5-9.4,6.5-9.4s7.3-35.3,22.7-23.7C881.4,312,878.8,327.9,878.8,327.9z"/>
	<path id="Trazado_262" class="st7" d="M766.4,383.6c0.2,1.2,4,6.1,2.6,6.9s-3.6,0.3-1.6,3.1c2.1,2.8,1.9,6.9,0.5,6.4
		c-1.4-0.5-3.6-6.7-3.6-9.2S766.4,383.6,766.4,383.6z"/>
	<path id="Trazado_263" class="st7" d="M817.8,380.9c0,0,1,12.1,9.6,15.6C835.8,399.9,817.8,380.9,817.8,380.9z"/>
	<path id="Trazado_264" class="st7" d="M835.4,376.7c0.5,0.2,12.1,6.4,6.9,10C837.1,390.4,835.4,376.7,835.4,376.7z"/>
	<path id="Trazado_265" class="st7" d="M836.1,368.1c0,0,17,3.5,11.2,6.4C841.6,377.4,836.1,368.1,836.1,368.1z"/>
	<g id="Grupo_25" class="st2">
		<path id="Trazado_266" d="M806.7,222.9c0.8-2.4,2.8-4.5,5.3-4.9c3.6-0.6,6.7,2.6,8.9,5.6c2.3,3.2,4.3,6.5,6.1,9.9
			c0.6,1,1.5,4.4,2.5,4.9c1.3,0.8,1.9-1.3,2.4-2.4c2.7-6,2.1-12.8,3.3-19.1c0.7-3.7,1.9-7.5,2.2-11.1c0.4,4.5-1.4,9.3-2.2,13.9
			c-1.2,6.3-0.6,13.1-3.3,19.1c-0.5,1.2-1.1,3.2-2.4,2.4c-0.9-0.6-1.9-3.9-2.5-4.9c-1.8-3.4-3.9-6.7-6.1-9.9c-2.1-3-5.2-6.2-8.9-5.6
			c-2.5,0.4-4.4,2.5-5.3,4.9c-0.4,1.3-0.7,2.6-0.7,3.9C805.8,227.3,806.1,225,806.7,222.9L806.7,222.9z"/>
		<path id="Trazado_267" d="M752.6,206.4c0.4,1.6,1.2,3,2.4,4.2c3.2,2.6,8.1,0.1,12,1.6c0.8,0.3,1.5,0.8,2.4,1c2.4,0.6,4.8-1,7-2.3
			c2.2-1.3,5.2-2.3,7-0.6c2.5,2.2,0.7,7,3.2,9.1c1.6,1.4,4.1,0.9,5.9,2c1.8,1.1,2.3,3.5,2.8,5.6c0.4,2.1,1.3,4.5,3.4,5.1
			c2.1,0.6,4-0.7,6-0.7c0.4,0,0.9,0.1,1.2-0.2c0.1-0.1,0.1-0.2,0.1-0.3c0,0.7,0,1.4,0.1,2.1c0.1,0.3,0,0.7-0.2,0.9
			c-0.3,0.3-0.8,0.3-1.2,0.2c-2-0.1-4.1,1.2-6,0.7s-3-3-3.4-5.1s-0.9-4.5-2.8-5.6c-1.8-1.1-4.3-0.7-5.9-2c-2.5-2.1-0.7-6.9-3.2-9.1
			c-1.9-1.7-4.9-0.7-7,0.6s-4.5,2.9-7,2.3c-0.8-0.2-1.6-0.7-2.4-1c-3.8-1.5-8.8,1-12-1.6c-1.1-1.2-2-2.6-2.4-4.2
			c-0.9-2.1-1.5-4.3-1.7-6.6c-0.1-0.8,0-1.6,0.1-2.3C751.3,202.4,751.8,204.4,752.6,206.4L752.6,206.4z"/>
	</g>
</g>
<g>
	<path class="st3" d="M278.3,413.5v-19.8l37.5-52.5h25.7v51.8h9.4v20.6h-9.4V428h-24v-14.5H278.3z M319.4,368.3l-17.1,24.6h17.1
		V368.3z"/>
	<path class="st3" d="M360.3,384.2c0-13.3,2.8-23.9,8.5-31.6c5.7-7.8,14.5-11.7,26.6-11.7c12,0,20.9,3.9,26.6,11.7
		c5.7,7.8,8.6,18.4,8.6,31.6c0,13.3-2.9,23.9-8.6,31.7c-5.7,7.8-14.6,11.7-26.6,11.7c-12,0-20.9-3.9-26.6-11.7
		C363.1,408,360.3,397.5,360.3,384.2z M407.1,384.2c0-6.6-0.8-11.7-2.4-15.4s-4.7-5.4-9.4-5.4c-4.7,0-7.8,1.8-9.4,5.4
		c-1.6,3.6-2.4,8.8-2.4,15.4c0,6.7,0.8,11.9,2.4,15.5c1.6,3.6,4.7,5.4,9.4,5.4c4.7,0,7.8-1.8,9.4-5.4S407.1,390.9,407.1,384.2z"/>
	<path class="st3" d="M440.6,413.5v-19.8l37.5-52.5h25.7v51.8h9.4v20.6h-9.4V428h-24v-14.5H440.6z M481.7,368.3l-17.1,24.6h17.1
		V368.3z"/>
</g>
<g>
	<path class="st3" d="M270.3,451.1v6.7h-2.8v-17.2h5.9c2,0,3.5,0.5,4.5,1.4c1,0.9,1.5,2.2,1.5,3.9c0,1.6-0.5,2.9-1.5,3.8
		c-1,0.9-2.5,1.4-4.4,1.4H270.3z M276.5,445.8c0-1-0.3-1.7-0.8-2.2c-0.5-0.5-1.4-0.8-2.6-0.8h-2.8v6h2.8
		C275.4,448.8,276.5,447.8,276.5,445.8z"/>
	<path class="st3" d="M290.3,445c0.9,0.6,1.5,1.4,1.8,2.4v-3.1h2.8v13.5h-2.8v-3.1c-0.4,1-1,1.8-1.8,2.4c-0.9,0.6-1.9,0.9-3.1,0.9
		c-1.2,0-2.2-0.3-3.1-0.8c-0.9-0.6-1.6-1.4-2.2-2.4c-0.5-1-0.8-2.3-0.8-3.7c0-1.4,0.3-2.6,0.8-3.7c0.5-1,1.2-1.8,2.2-2.4
		c0.9-0.6,2-0.8,3.1-0.8C288.4,444.1,289.4,444.4,290.3,445z M285.1,447.7c-0.7,0.8-1.1,1.9-1.1,3.3c0,1.4,0.4,2.5,1.1,3.3
		c0.7,0.8,1.7,1.2,3,1.2c0.8,0,1.5-0.2,2.1-0.5c0.6-0.4,1.1-0.9,1.5-1.6c0.4-0.7,0.5-1.4,0.5-2.3c0-0.9-0.2-1.7-0.5-2.3
		c-0.4-0.7-0.8-1.2-1.5-1.6c-0.6-0.4-1.3-0.5-2.1-0.5C286.8,446.6,285.8,447,285.1,447.7z M291.9,440.5l-5.4,2.8v-2l5.4-3V440.5z"/>
	<path class="st3" d="M306.8,445c0.9,0.6,1.5,1.4,1.8,2.4v-3.1h2.8v13.6c0,1.3-0.3,2.4-0.8,3.3c-0.5,1-1.3,1.7-2.2,2.3
		s-2.1,0.8-3.4,0.8c-1.9,0-3.4-0.4-4.6-1.3c-1.2-0.9-1.9-2.1-2.2-3.6h2.8c0.2,0.8,0.7,1.4,1.3,1.9c0.7,0.4,1.5,0.7,2.5,0.7
		c1.1,0,2-0.3,2.7-1s1.1-1.7,1.1-3v-3.3c-0.4,1-1,1.8-1.8,2.4c-0.9,0.6-1.9,0.9-3.1,0.9c-1.2,0-2.2-0.3-3.1-0.8
		c-0.9-0.6-1.6-1.4-2.2-2.4c-0.5-1-0.8-2.3-0.8-3.7c0-1.4,0.3-2.6,0.8-3.7c0.5-1,1.2-1.8,2.2-2.4c0.9-0.6,2-0.8,3.1-0.8
		C304.9,444.1,305.9,444.4,306.8,445z M301.5,447.7c-0.7,0.8-1.1,1.9-1.1,3.3c0,1.4,0.4,2.5,1.1,3.3c0.7,0.8,1.7,1.2,3,1.2
		c0.8,0,1.5-0.2,2.1-0.5c0.6-0.4,1.1-0.9,1.5-1.6c0.4-0.7,0.5-1.4,0.5-2.3c0-0.9-0.2-1.7-0.5-2.3c-0.4-0.7-0.8-1.2-1.5-1.6
		c-0.6-0.4-1.3-0.5-2.1-0.5C303.3,446.6,302.3,447,301.5,447.7z"/>
	<path class="st3" d="M314.8,439.2c0.3-0.3,0.8-0.5,1.3-0.5c0.5,0,1,0.2,1.3,0.5c0.3,0.3,0.5,0.7,0.5,1.2c0,0.5-0.2,0.9-0.5,1.1
		c-0.3,0.3-0.8,0.4-1.3,0.4c-0.5,0-1-0.1-1.3-0.4c-0.3-0.3-0.5-0.7-0.5-1.1C314.4,439.9,314.5,439.5,314.8,439.2z M317.5,444.3v13.5
		h-2.8v-13.5H317.5z"/>
	<path class="st3" d="M332.2,445.6c0.9,1,1.4,2.5,1.4,4.3v7.8h-2.8v-7.5c0-1.2-0.3-2.1-0.9-2.8c-0.6-0.7-1.5-1-2.5-1
		c-1.1,0-2,0.4-2.7,1.1c-0.7,0.7-1,1.7-1,3.1v7.2h-2.8v-13.5h2.8v3c0.4-1,1-1.8,1.8-2.3c0.8-0.6,1.8-0.8,2.9-0.8
		C330,444.1,331.2,444.6,332.2,445.6z"/>
	<path class="st3" d="M345.4,445c0.9,0.6,1.5,1.4,1.8,2.4v-3.1h2.8v13.5h-2.8v-3.1c-0.4,1-1,1.8-1.8,2.4c-0.9,0.6-1.9,0.9-3.1,0.9
		c-1.2,0-2.2-0.3-3.1-0.8c-0.9-0.6-1.6-1.4-2.2-2.4c-0.5-1-0.8-2.3-0.8-3.7c0-1.4,0.3-2.6,0.8-3.7c0.5-1,1.2-1.8,2.2-2.4
		c0.9-0.6,2-0.8,3.1-0.8C343.5,444.1,344.5,444.4,345.4,445z M340.1,447.7c-0.7,0.8-1.1,1.9-1.1,3.3c0,1.4,0.4,2.5,1.1,3.3
		c0.7,0.8,1.7,1.2,3,1.2c0.8,0,1.5-0.2,2.1-0.5c0.6-0.4,1.1-0.9,1.5-1.6c0.4-0.7,0.5-1.4,0.5-2.3c0-0.9-0.2-1.7-0.5-2.3
		c-0.4-0.7-0.8-1.2-1.5-1.6c-0.6-0.4-1.3-0.5-2.1-0.5C341.9,446.6,340.9,447,340.1,447.7z"/>
	<path class="st3" d="M373,457.7h-2.8l-8.4-12.7v12.7H359v-17.2h2.8l8.4,12.8v-12.8h2.8V457.7z"/>
	<path class="st3" d="M386,444.9c1,0.6,1.9,1.4,2.4,2.4c0.6,1,0.9,2.3,0.9,3.7c0,1.4-0.3,2.6-0.9,3.7c-0.6,1-1.4,1.8-2.4,2.4
		s-2.2,0.8-3.5,0.8c-1.3,0-2.5-0.3-3.5-0.8c-1-0.6-1.8-1.4-2.4-2.4c-0.6-1-0.9-2.3-0.9-3.7c0-1.4,0.3-2.6,0.9-3.7
		c0.6-1,1.4-1.8,2.4-2.4c1-0.6,2.2-0.8,3.5-0.8C383.8,444.1,385,444.4,386,444.9z M380.5,447c-0.6,0.3-1.1,0.8-1.5,1.5
		c-0.4,0.7-0.5,1.5-0.5,2.5c0,1,0.2,1.8,0.5,2.5c0.4,0.7,0.9,1.2,1.5,1.5c0.6,0.3,1.3,0.5,2,0.5c0.7,0,1.4-0.2,2-0.5
		c0.6-0.3,1.1-0.8,1.5-1.5c0.4-0.7,0.5-1.5,0.5-2.5c0-1-0.2-1.8-0.5-2.5c-0.4-0.7-0.9-1.2-1.5-1.5c-0.6-0.3-1.3-0.5-2-0.5
		C381.8,446.5,381.1,446.7,380.5,447z"/>
	<path class="st3" d="M411.5,453.7c-0.7,1.3-1.7,2.3-3.1,3s-3,1.1-4.9,1.1h-5.8v-17.2h5.8c1.9,0,3.5,0.4,4.9,1.1s2.4,1.7,3.1,3
		s1.1,2.8,1.1,4.5S412.2,452.4,411.5,453.7z M408,453.6c1.1-1.1,1.7-2.6,1.7-4.5s-0.6-3.4-1.7-4.5c-1.1-1.1-2.7-1.6-4.8-1.6h-2.8
		v12.3h2.8C405.4,455.2,406.9,454.7,408,453.6z"/>
	<path class="st3" d="M415.4,439.2c0.3-0.3,0.8-0.5,1.3-0.5s1,0.2,1.3,0.5c0.3,0.3,0.5,0.7,0.5,1.2c0,0.5-0.2,0.9-0.5,1.1
		c-0.3,0.3-0.8,0.4-1.3,0.4s-1-0.1-1.3-0.4c-0.3-0.3-0.5-0.7-0.5-1.1C415,439.9,415.1,439.5,415.4,439.2z M418.1,444.3v13.5h-2.8
		v-13.5H418.1z"/>
	<path class="st3" d="M429.7,445.3c1,0.8,1.5,1.9,1.7,3.2h-2.6c-0.1-0.7-0.4-1.3-0.9-1.8c-0.5-0.4-1.2-0.7-2-0.7
		c-0.7,0-1.2,0.2-1.6,0.5c-0.4,0.3-0.6,0.8-0.6,1.4c0,0.4,0.1,0.8,0.4,1c0.3,0.3,0.6,0.5,1,0.6s1,0.3,1.8,0.5c1,0.2,1.8,0.5,2.5,0.7
		c0.6,0.2,1.2,0.6,1.6,1.2c0.4,0.5,0.7,1.3,0.7,2.2c0,1.1-0.4,2-1.3,2.7s-2,1-3.5,1c-1.7,0-3-0.4-4.1-1.2s-1.7-1.9-1.9-3.3h2.7
		c0.1,0.7,0.4,1.3,1,1.8c0.6,0.5,1.3,0.7,2.2,0.7c0.7,0,1.2-0.2,1.6-0.5c0.4-0.3,0.6-0.8,0.6-1.3c0-0.5-0.1-0.8-0.4-1.1
		c-0.3-0.3-0.7-0.5-1.1-0.6c-0.4-0.2-1-0.3-1.8-0.5c-1-0.2-1.8-0.5-2.4-0.7c-0.6-0.2-1.1-0.6-1.6-1.1c-0.4-0.5-0.6-1.2-0.6-2.1
		c0-1.1,0.4-2.1,1.3-2.8c0.9-0.7,2-1.1,3.6-1.1C427.5,444.1,428.8,444.5,429.7,445.3z"/>
	<path class="st3" d="M445.2,444.9c0.9,0.6,1.6,1.4,2.2,2.4c0.5,1,0.8,2.3,0.8,3.7c0,1.4-0.3,2.6-0.8,3.7c-0.5,1-1.2,1.8-2.2,2.4
		s-2,0.8-3.1,0.8c-1.2,0-2.3-0.3-3.1-0.9c-0.9-0.6-1.5-1.4-1.8-2.4v9.5h-2.8v-19.9h2.8v3.1c0.3-1,0.9-1.8,1.8-2.4
		c0.9-0.6,1.9-0.9,3.1-0.9C443.3,444.1,444.3,444.4,445.2,444.9z M439.2,447.1c-0.6,0.4-1.1,0.9-1.5,1.6c-0.4,0.7-0.5,1.5-0.5,2.3
		c0,0.9,0.2,1.7,0.5,2.3c0.4,0.7,0.8,1.2,1.5,1.6c0.6,0.4,1.3,0.5,2.1,0.5c1.2,0,2.2-0.4,3-1.2c0.7-0.8,1.1-1.9,1.1-3.3
		c0-1.4-0.4-2.4-1.1-3.2c-0.7-0.8-1.7-1.2-3-1.2C440.5,446.6,439.8,446.7,439.2,447.1z"/>
	<path class="st3" d="M460.5,444.9c1,0.6,1.9,1.4,2.4,2.4s0.9,2.3,0.9,3.7c0,1.4-0.3,2.6-0.9,3.7c-0.6,1-1.4,1.8-2.4,2.4
		c-1,0.6-2.2,0.8-3.5,0.8c-1.3,0-2.5-0.3-3.5-0.8c-1-0.6-1.8-1.4-2.4-2.4c-0.6-1-0.9-2.3-0.9-3.7c0-1.4,0.3-2.6,0.9-3.7
		c0.6-1,1.4-1.8,2.4-2.4c1-0.6,2.2-0.8,3.5-0.8C458.3,444.1,459.5,444.4,460.5,444.9z M455.1,447c-0.6,0.3-1.1,0.8-1.5,1.5
		c-0.4,0.7-0.5,1.5-0.5,2.5c0,1,0.2,1.8,0.5,2.5c0.4,0.7,0.8,1.2,1.5,1.5c0.6,0.3,1.3,0.5,2,0.5c0.7,0,1.4-0.2,2-0.5
		c0.6-0.3,1.1-0.8,1.5-1.5c0.4-0.7,0.5-1.5,0.5-2.5c0-1-0.2-1.8-0.5-2.5c-0.4-0.7-0.9-1.2-1.5-1.5c-0.6-0.3-1.3-0.5-2-0.5
		C456.3,446.5,455.7,446.7,455.1,447z"/>
	<path class="st3" d="M477.8,445.6c0.9,1,1.4,2.5,1.4,4.3v7.8h-2.8v-7.5c0-1.2-0.3-2.1-0.9-2.8c-0.6-0.7-1.5-1-2.5-1
		c-1.1,0-2,0.4-2.7,1.1c-0.7,0.7-1,1.7-1,3.1v7.2h-2.8v-13.5h2.8v3c0.4-1,1-1.8,1.8-2.3s1.8-0.8,2.9-0.8
		C475.6,444.1,476.9,444.6,477.8,445.6z"/>
	<path class="st3" d="M482.6,439.2c0.3-0.3,0.8-0.5,1.3-0.5s1,0.2,1.3,0.5c0.3,0.3,0.5,0.7,0.5,1.2c0,0.5-0.2,0.9-0.5,1.1
		c-0.3,0.3-0.8,0.4-1.3,0.4s-1-0.1-1.3-0.4c-0.3-0.3-0.5-0.7-0.5-1.1C482.1,439.9,482.3,439.5,482.6,439.2z M485.3,444.3v13.5h-2.8
		v-13.5H485.3z"/>
	<path class="st3" d="M499.5,444.9c0.9,0.6,1.6,1.4,2.2,2.4c0.5,1,0.8,2.3,0.8,3.7c0,1.4-0.3,2.6-0.8,3.7c-0.5,1-1.2,1.8-2.2,2.4
		s-2,0.8-3.1,0.8c-1.2,0-2.3-0.3-3.1-0.9c-0.9-0.6-1.5-1.4-1.8-2.4v3.1h-2.8v-18.1h2.8v7.7c0.3-1,0.9-1.8,1.8-2.4
		c0.9-0.6,1.9-0.9,3.1-0.9C497.5,444.1,498.6,444.4,499.5,444.9z M493.4,447.1c-0.6,0.4-1.1,0.9-1.5,1.6c-0.4,0.7-0.5,1.5-0.5,2.3
		c0,0.9,0.2,1.7,0.5,2.3c0.4,0.7,0.8,1.2,1.5,1.6c0.6,0.4,1.3,0.5,2.1,0.5c1.2,0,2.2-0.4,3-1.2c0.7-0.8,1.1-1.9,1.1-3.3
		c0-1.4-0.4-2.4-1.1-3.2c-0.7-0.8-1.7-1.2-3-1.2C494.7,446.6,494,446.7,493.4,447.1z"/>
	<path class="st3" d="M507.9,439.7v18.1h-2.8v-18.1H507.9z"/>
	<path class="st3" d="M523.7,451.6h-10.4c0,1.4,0.4,2.4,1.1,3.1c0.7,0.7,1.6,1,2.7,1c0.9,0,1.7-0.2,2.4-0.7c0.6-0.5,1-1.1,1.2-1.9h3
		c-0.2,0.9-0.6,1.8-1.1,2.5c-0.6,0.7-1.3,1.3-2.2,1.7c-0.9,0.4-1.9,0.6-3.1,0.6c-1.3,0-2.5-0.3-3.5-0.8c-1-0.6-1.8-1.4-2.4-2.4
		c-0.6-1-0.9-2.3-0.9-3.7c0-1.4,0.3-2.6,0.9-3.7c0.6-1,1.4-1.8,2.4-2.4c1-0.6,2.2-0.8,3.5-0.8c1.3,0,2.5,0.3,3.5,0.8
		c1,0.5,1.7,1.3,2.3,2.2c0.5,1,0.8,2,0.8,3.2C523.8,450.8,523.8,451.2,523.7,451.6z M520.5,448.1c-0.3-0.6-0.8-1-1.4-1.3
		c-0.6-0.3-1.2-0.4-1.9-0.4c-1.1,0-2,0.3-2.7,1c-0.7,0.7-1.1,1.7-1.2,3h7.6C521,449.4,520.9,448.7,520.5,448.1z"/>
</g>
</svg>
