<?xml version="1.0" encoding="utf-8"?>
<!-- Generator: Adobe Illustrator 24.1.1, SVG Export Plug-In . SVG Version: 6.00 Build 0)  -->
<svg version="1.1" id="Capa_1" xmlns="http://www.w3.org/2000/svg" xmlns:xlink="http://www.w3.org/1999/xlink" x="0px" y="0px"
	 viewBox="0 0 1280 720.5" style="enable-background:new 0 0 1280 720.5;" xml:space="preserve">
<style type="text/css">
	.st0{fill:none;stroke:#707070;}
	.st1{fill:#0C0A59;}
	.st2{fill:#F2F2F2;}
	.st3{opacity:0.1;}
	.st4{opacity:0.2;}
	.st5{fill:#FF6584;}
	.st6{fill:#2F2E41;}
	.st7{fill:#A0616A;}
	.st8{opacity:0.1;enable-background:new    ;}
	.st9{fill:#3F3D56;}
</style>
<g id="Grupo_96">
	<g id="Grupo_95">
		<path class="st0" d="M60,0.5h1219c0.3,0,0.5,0.2,0.5,0.5v659c0,32.9-26.6,59.5-59.5,59.5H1c-0.3,0-0.5-0.2-0.5-0.5V60
			C0.5,27.1,27.1,0.5,60,0.5z"/>
		<g id="Grupo_10" transform="translate(261.743 70.749)">
			<g>
				<path class="st1" d="M-201.7-70.7c-33.1,0-60,26.9-60,60v660h205.5C-4,520.7,157.3,427,348.1,427s352.1,93.7,404.4,222.3h205.7
					c33.1,0,60-26.9,60-60v-660H-201.7z"/>
				<path class="st2" d="M348.1,427C157.3,427-4,520.7-56.3,649.3h808.8C700.2,520.7,539,427,348.1,427z"/>
			</g>
			<g id="Grupo_2" transform="translate(398.679 474.389)" class="st3">
				<ellipse id="Elipse_15" cx="30" cy="12.2" rx="30" ry="12.2"/>
			</g>
			<g id="Grupo_83" transform="translate(347.657 611.219)" class="st3">
				<ellipse id="Elipse_15-2" cx="30" cy="12.2" rx="30" ry="12.2"/>
			</g>
			<g id="Grupo_68" transform="translate(135.575 551.472)" class="st3">
				<ellipse id="Elipse_15-4" cx="34.2" cy="12.2" rx="34.2" ry="12.2"/>
			</g>
			<g id="Grupo_66" transform="translate(404.683 479.867)" class="st3">
				<ellipse id="Elipse_15-5" cx="30" cy="12.2" rx="30" ry="12.2"/>
			</g>
			<g id="Grupo_82" transform="translate(353.661 616.697)" class="st3">
				<ellipse id="Elipse_15-6" cx="30" cy="12.2" rx="30" ry="12.2"/>
			</g>
			<g id="Grupo_67" transform="translate(140.271 546.248)" class="st3">
				<ellipse id="Elipse_15-8" cx="34.2" cy="12.2" rx="34.2" ry="12.2"/>
			</g>
		</g>
		<line id="Línea_3" class="st0" x1="105.5" y1="720.5" x2="1100.5" y2="720.5"/>
	</g>
	<g id="Grupo_11" transform="translate(152 -21)" class="st4">
		<ellipse id="Elipse_19" class="st2" cx="241.5" cy="308" rx="7.5" ry="7"/>
		<path id="Trazado_19" class="st2" d="M151.3,208.4h-1.7v-1.7h-0.3v1.7h-1.7v0.3h1.7v1.7h0.3v-1.7h1.7L151.3,208.4z"/>
		<path id="Trazado_24" class="st2" d="M56.9,302.3h-1.7v-1.7H55v1.7h-1.7v0.3H55v1.7h0.3v-1.7h1.7L56.9,302.3z"/>
		<path id="Trazado_36" class="st2" d="M120.4,85.5h-1.7v-1.7h-0.3v1.7h-1.7v0.3h1.7v1.7h0.3v-1.7h1.7V85.5z"/>
		<path id="Trazado_37" class="st2" d="M104.1,100.8h-1.7v-1.7h-0.3v1.7h-1.7v0.3h1.7v1.7h0.3v-1.7h1.7V100.8z"/>
		<ellipse id="Elipse_25" class="st2" cx="38.5" cy="59.5" rx="2.5" ry="3.5"/>
		<ellipse id="Elipse_21" class="st5" cx="222.5" cy="86" rx="4.5" ry="2"/>
		<path id="Trazado_20" class="st2" d="M288.2,181.5h-1.7v-1.7h-0.3v1.7h-1.7v0.3h1.7v1.7h0.3v-1.7h1.7V181.5z"/>
		<path id="Trazado_22" class="st2" d="M248.3,262.2h-1.7v-1.7h-0.3v1.7h-1.7v0.3h1.7v1.7h0.3v-1.7h1.7L248.3,262.2z"/>
		<ellipse id="Elipse_18" class="st2" cx="-6.5" cy="274" rx="3.5" ry="3"/>
		<path id="Trazado_25" class="st2" d="M-27.5,311.9h-0.9V311h-0.2v0.9h-0.9v0.2h0.9v0.9h0.2V312h0.9V311.9z"/>
		<path id="Trazado_21" class="st2" d="M-6.6,256.1h-1.7v-1.7h-0.3v1.7h-1.7v0.3h1.7v1.7h0.3v-1.7h1.7L-6.6,256.1z"/>
		<path id="Trazado_23" class="st2" d="M-59.2,304.2h-1.7v-1.7h-0.3v1.7h-1.7v0.3h1.7v1.7h0.3v-1.7h1.7L-59.2,304.2z"/>
		<path id="Trazado_35" class="st2" d="M-28.3,137.3H-30v-1.7h-0.3v1.7H-32v0.3h1.7v1.7h0.3v-1.7h1.7L-28.3,137.3z"/>
		<ellipse id="Elipse_20" class="st2" cx="-92.5" cy="125" rx="5.5" ry="6"/>
	</g>
	<g id="Grupo_78" transform="translate(558 -21)" class="st4">
		<ellipse id="Elipse_19-2" class="st2" cx="241.5" cy="308" rx="7.5" ry="7"/>
		<path id="Trazado_19-2" class="st2" d="M151.3,208.4h-1.7v-1.7h-0.3v1.7h-1.7v0.3h1.7v1.7h0.3v-1.7h1.7L151.3,208.4z"/>
		<path id="Trazado_24-2" class="st2" d="M56.9,302.3h-1.7v-1.7H55v1.7h-1.7v0.3H55v1.7h0.3v-1.7h1.7L56.9,302.3z"/>
		<path id="Trazado_36-2" class="st2" d="M120.4,85.5h-1.7v-1.7h-0.3v1.7h-1.7v0.3h1.7v1.7h0.3v-1.7h1.7V85.5z"/>
		<path id="Trazado_37-2" class="st2" d="M104.1,100.8h-1.7v-1.7h-0.3v1.7h-1.7v0.3h1.7v1.7h0.3v-1.7h1.7V100.8z"/>
		<ellipse id="Elipse_25-2" class="st2" cx="38.5" cy="59.5" rx="2.5" ry="3.5"/>
		<ellipse id="Elipse_21-2" class="st5" cx="222.5" cy="86" rx="4.5" ry="2"/>
		<path id="Trazado_20-2" class="st2" d="M288.2,181.5h-1.7v-1.7h-0.3v1.7h-1.7v0.3h1.7v1.7h0.3v-1.7h1.7V181.5z"/>
		<path id="Trazado_22-2" class="st2" d="M248.3,262.2h-1.7v-1.7h-0.3v1.7h-1.7v0.3h1.7v1.7h0.3v-1.7h1.7L248.3,262.2z"/>
		<ellipse id="Elipse_18-2" class="st2" cx="-6.5" cy="274" rx="3.5" ry="3"/>
		<path id="Trazado_25-2" class="st2" d="M-27.5,311.9h-0.9V311h-0.2v0.9h-0.9v0.2h0.9v0.9h0.2V312h0.9V311.9z"/>
		<path id="Trazado_21-2" class="st2" d="M-6.6,256.1h-1.7v-1.7h-0.3v1.7h-1.7v0.3h1.7v1.7h0.3v-1.7h1.7L-6.6,256.1z"/>
		<path id="Trazado_23-2" class="st2" d="M-59.2,304.2h-1.7v-1.7h-0.3v1.7h-1.7v0.3h1.7v1.7h0.3v-1.7h1.7L-59.2,304.2z"/>
		<path id="Trazado_35-2" class="st2" d="M-28.3,137.3H-30v-1.7h-0.3v1.7H-32v0.3h1.7v1.7h0.3v-1.7h1.7L-28.3,137.3z"/>
		<ellipse id="Elipse_20-2" class="st2" cx="-92.5" cy="125" rx="5.5" ry="6"/>
	</g>
	<g id="Grupo_80" transform="translate(944 -21)" class="st4">
		<ellipse id="Elipse_19-3" class="st2" cx="241.5" cy="308" rx="7.5" ry="7"/>
		<path id="Trazado_19-3" class="st2" d="M151.3,208.4h-1.7v-1.7h-0.3v1.7h-1.7v0.3h1.7v1.7h0.3v-1.7h1.7L151.3,208.4z"/>
		<path id="Trazado_24-3" class="st2" d="M56.9,302.3h-1.7v-1.7H55v1.7h-1.7v0.3H55v1.7h0.3v-1.7h1.7L56.9,302.3z"/>
		<path id="Trazado_36-3" class="st2" d="M120.4,85.5h-1.7v-1.7h-0.3v1.7h-1.7v0.3h1.7v1.7h0.3v-1.7h1.7V85.5z"/>
		<path id="Trazado_37-3" class="st2" d="M104.1,100.8h-1.7v-1.7h-0.3v1.7h-1.7v0.3h1.7v1.7h0.3v-1.7h1.7V100.8z"/>
		<ellipse id="Elipse_25-3" class="st2" cx="38.5" cy="59.5" rx="2.5" ry="3.5"/>
		<ellipse id="Elipse_21-3" class="st5" cx="222.5" cy="86" rx="4.5" ry="2"/>
		<path id="Trazado_20-3" class="st2" d="M288.2,181.5h-1.7v-1.7h-0.3v1.7h-1.7v0.3h1.7v1.7h0.3v-1.7h1.7V181.5z"/>
		<path id="Trazado_22-3" class="st2" d="M248.3,262.2h-1.7v-1.7h-0.3v1.7h-1.7v0.3h1.7v1.7h0.3v-1.7h1.7L248.3,262.2z"/>
		<ellipse id="Elipse_18-3" class="st2" cx="-6.5" cy="274" rx="3.5" ry="3"/>
		<path id="Trazado_25-3" class="st2" d="M-27.5,311.9h-0.9V311h-0.2v0.9h-0.9v0.2h0.9v0.9h0.2V312h0.9V311.9z"/>
		<path id="Trazado_21-3" class="st2" d="M-6.6,256.1h-1.7v-1.7h-0.3v1.7h-1.7v0.3h1.7v1.7h0.3v-1.7h1.7L-6.6,256.1z"/>
		<path id="Trazado_23-3" class="st2" d="M-59.2,304.2h-1.7v-1.7h-0.3v1.7h-1.7v0.3h1.7v1.7h0.3v-1.7h1.7L-59.2,304.2z"/>
		<path id="Trazado_35-3" class="st2" d="M-28.3,137.3H-30v-1.7h-0.3v1.7H-32v0.3h1.7v1.7h0.3v-1.7h1.7L-28.3,137.3z"/>
		<ellipse id="Elipse_20-3" class="st2" cx="-92.5" cy="125" rx="5.5" ry="6"/>
	</g>
	<g id="Grupo_12" transform="matrix(-0.966, 0.259, -0.259, -0.966, 380.078, 720.788)">
		<ellipse id="Elipse_19-4" class="st2" cx="273.9" cy="384.9" rx="7.4" ry="8.6"/>
		<path id="Trazado_19-4" class="st2" d="M207.9,243.1h-2v-2h-0.4v2h-2v0.4h2v2h0.4v-2h2L207.9,243.1z"/>
		<path id="Trazado_24-4" class="st2" d="M92.2,358.3h-2v-2h-0.4v2h-2v0.4h2v2h0.4v-2h2L92.2,358.3z"/>
		<path id="Trazado_36-4" class="st2" d="M170.1,92.3h-2v-2h-0.4v2h-2v0.4h2v2h0.4v-2h2L170.1,92.3z"/>
		<path id="Trazado_37-4" class="st2" d="M150,111h-2v-2h-0.4v2h-2v0.4h2v2h0.4v-2h2L150,111z"/>
		<ellipse id="Elipse_25-4" class="st2" cx="69.5" cy="60.3" rx="3.1" ry="4.3"/>
		<ellipse id="Elipse_21-4" class="st5" cx="295.3" cy="92.8" rx="5.5" ry="2.5"/>
		<ellipse id="Elipse_18-4" class="st2" cx="14.3" cy="323.5" rx="4.3" ry="3.7"/>
		<path id="Trazado_25-4" class="st2" d="M-11.5,370h-1.1v-1.1h-0.2v1.1h-1.1v0.2h1.1v1.1h0.2v-1.1h1.1L-11.5,370z"/>
		<path id="Trazado_21-4" class="st2" d="M14.2,301.6h-2v-2h-0.4v2h-2v0.4h2v2h0.4v-2h2L14.2,301.6z"/>
		<path id="Trazado_23-4" class="st2" d="M-50.3,360.6h-2v-2h-0.4v2h-2v0.4h2v2h0.4v-2h2L-50.3,360.6z"/>
		<path id="Trazado_35-4" class="st2" d="M-12.5,155.8h-2v-2h-0.4v2h-2v0.4h2v2h0.4v-2h2L-12.5,155.8z"/>
		<ellipse id="Elipse_20-4" class="st2" cx="-91.3" cy="140.7" rx="6.8" ry="7.4"/>
	</g>
</g>
<g id="Grupo_7" transform="translate(332.975 315.5)">
	<path id="Trazado_3" class="st6" d="M68.1,46.7c0,0-6.4-1.9-7.7,0.2s1.9,16.9,1.9,16.9l14,0.9l-4.9-12.4L68.1,46.7z"/>
	<path id="Trazado_4" class="st7" d="M19,168.6c0,0,12.8,28,2.9,27.1S8.3,168.6,8.3,168.6H19z"/>
	<path id="Trazado_5" class="st7" d="M102.5,165.6c0,0-5.6,30.3,3.7,27s6.7-29.6,6.7-29.6L102.5,165.6z"/>
	<path id="Trazado_6" class="st7" d="M65.4,39.7c0,0-0.1,14.1,5.3,14.8s-3.1,8.2-3.1,8.2l-9.7,1.9l-13.9-1l-6.2-7.9
		c0,0,10.9-5.1,6.2-21.1L65.4,39.7z"/>
	<path id="Trazado_7" class="st8" d="M65.4,39.7c0,0-0.1,14.1,5.3,14.8s-3.1,8.2-3.1,8.2l-9.7,1.9l-13.9-1l-6.2-7.9
		c0,0,10.9-5.1,6.2-21.1L65.4,39.7z"/>
	<path id="Trazado_8" class="st6" d="M90.3,158.7c0,0,6.9,14.8,1.5,61.3c0,0,1.6,16.4,0.3,19.5s-12.2,44.9-12.2,44.9
		s-13.9,3.1-15.8-6.2c0,0,1.9-13.2,1.8-15.3s3.1-24.5,3.1-24.5l-6.6-43.4l-5,39.2c0,0,0,11.3-1.6,13.8s0,52.6,0,52.6
		s4.5,7.6-2.3,7.8s-13.1-0.1-13.6-5s-0.9-9.7-2.3-12.6s-3.4-36.5-2.9-48.2s-9.7-72-6.5-78.3C31.2,158,90.3,158.7,90.3,158.7z"/>
	<circle id="Elipse_7" class="st7" cx="57.9" cy="27.4" r="17.6"/>
	<path id="Trazado_9" class="st2" d="M40.3,56c0,0,10.7,7.9,26.2,1.6c0,0,5.1-2.5,4.7-6.3s10.7,30.6,10.7,30.6l11.3,60l-0.6,24.5
		c0,0-5-2.5-20.5,3.1s-40.9-6.3-40.9-6.3l0.9-62.9L33,63.6l2.3-8.1C35.3,55.5,36.5,53.3,40.3,56z"/>
	<path id="Trazado_10" class="st6" d="M65.9,46.1c0,0,2.6-0.4,5.1,3.5s8.4,6.5,8.4,6.5s14.2,0.9,16.3,8.5s7.2,18,9.7,37.2
		s7.5,49.9,8.2,52.3s-1,10.1,1,12.5S100,169,100,169s-1.5-12-2.5-12s-0.7,8.1,0.3,13.9s-7.5,0-7.5,0s-6.6-26.8-12.9-51
		s-10-37.5-8.8-43s4.4-21,2.1-22.4S65.9,46.1,65.9,46.1z"/>
	<path id="Trazado_11" class="st6" d="M44.7,46.1c-4.7,2.8-9.2,5.8-13.5,9C21.5,62,14.9,67.2,14.9,67.2s-3.8,2.9-6.2,20.4
		S1.2,150.2,3.2,156c2.1,5.7,2.8,9.1,2.1,12.5s15.4,3.2,15.7,2.5s-0.4-14.1,0.3-14.4s4.7,7.9,5.4,14.8s9.2,12.3,11.1,12.3
		s11.7-39.7,11.9-66.9s-3.2-50-5.7-53.2S44.7,46.1,44.7,46.1z"/>
	<path id="Trazado_12" class="st9" d="M70.5,285.7c0,0,1.2-3.2,5.3-2.2s6.9-2.6,6.9-2.6s2.2-0.3,0.7,2.5s-2.6,4.7-2.6,4.7
		s8.8,20.1,3.1,24.9s-12.3,1.9-12.3,1.9s-6.5-4.5-6.2-16.6c0,0-0.3-3.8-3.8-10s-6.2-15.5-1.9-17.3s5.3-1.8,5.3-1.8s-2,9.1,3.1,12.3
		L70.5,285.7z"/>
	<path id="Trazado_13" class="st9" d="M43.2,308.4c0,0-3.5-6.6,2.3-7.3s12.2-1.2,11.9,1.9s-1,7.8-1,7.8l1,3.4c0,0,0.3,8.4,1.3,9.4
		s6.6,9.8-5.3,9.8s-15.4-1.3-14.4-4.1s1.3-16.6,1.3-16.6L43.2,308.4z"/>
	<path id="Trazado_14" class="st6" d="M52.3,13.3c0,0,8.2,2.2,12.5,3.1c4.3,0.9,3.8-1.6,3.8-1.6s5.6,0.7,5.3,0.1s2.3-3.7-0.7-7.2
		S71,1.5,71,1.5h-2.6l-0.7-1h-4.1c0,0-3.1-1.2-11.1,0S33.3,2,32.4,6.8S27,17.7,28.6,20.5s10.9,14.2,11.7,19.1s5,5.9,4.8,2.9
		s-4.3-13.6-0.7-14S53.9,19,52.3,13.3z"/>
</g>
</svg>
