<svg xmlns="http://www.w3.org/2000/svg" width="311.75" height="435.259" viewBox="0 0 311.75 435.259">
  <g id="Grupo_98" data-name="Grupo 98" transform="translate(-886.304 -224.348)">
    <g id="Grupo_14" data-name="Grupo 14" transform="translate(886.304 224.348)">
      <path id="Path_943" data-name="Path 943" d="M976.043,747.2c-5.007,20.6-267.867,18.869-267.469,0C713.581,726.6,976.441,728.333,976.043,747.2Z" transform="translate(-708.573 -326.751)" fill="#e6e6e6"/>
      <path id="Path_953" data-name="Path 953" d="M894.135,636.133s-3.12-10.572,1.963-7.123,19.877,8.628,14.547,16.923-37.232,54.142-42.391,45.057c-2.864-5.044,7.116-47.825,7.116-47.825s7.1-1.641,8.116,0S894.135,636.133,894.135,636.133Z" transform="translate(-682.756 -320.528)" fill="#2f2e41"/>
      <path id="Path_954" data-name="Path 954" d="M689.447,207.972l-.953,17.157L676.1,249.916l40.994-1.907-2.86-25.741,1.907-10.487Z" transform="translate(-523.839 -162.179)" fill="#ffb8b8"/>
      <path id="Path_955" data-name="Path 955" d="M839.091,370.975s6.674,7.627,23.834-.953l13.347,64.824L878.179,493l-57.2-1.907.953-59.108Z" transform="translate(-678.249 -295.632)" fill="#d1d1d1"/>
      <path id="Path_956" data-name="Path 956" d="M805.636,507.054s6.159,30.257,17.673,22.926-2.482-28.573-2.482-28.573Z" transform="translate(-676.771 -308.295)" fill="#ffb8b8"/>
      <path id="Path_957" data-name="Path 957" d="M712.925,557.091l-.953,16.207,15.254,4.767V556.138Z" transform="translate(-527.297 -195.737)" fill="#ffb8b8"/>
      <path id="Path_958" data-name="Path 958" d="M657.11,369.394V464.73l54.341,46.716L724.8,488.564,686.663,457.1,696.2,433.27l40.041-25.742V370.347Z" transform="translate(-522.009 -177.737)" fill="#2f2e41"/>
      <path id="Path_959" data-name="Path 959" d="M856.848,560.328l5.72,48.621,1.907,64.824h24.787s8.578-57.2-.954-71.5l7.627-62.913-7.627-24.787Z" transform="translate(-681.707 -309.564)" fill="#2f2e41"/>
      <path id="Path_960" data-name="Path 960" d="M878.572,704.069s.953-3.813-5.721-3.813-9.533.953-9.533,1.907a41.207,41.207,0,0,1-.953,4.767s-17.156,42.9,0,40.995,20.021-10.485,20.021-10.485l1.906-27.647s-1.906-2.335-2.86-2.12S878.572,704.069,878.572,704.069Z" transform="translate(-681.502 -327.461)" fill="#2f2e41"/>
      <circle id="Ellipse_187" data-name="Ellipse 187" cx="20.974" cy="20.974" r="20.974" transform="translate(159.888 13.379)" fill="#ffb8b8"/>
      <path id="Path_961" data-name="Path 961" d="M865.453,374.875l-6.674-7.627,12.9-16.148,5.211,5.654L907.4,370.1,898.826,454s-.954,24.787,4.767,41.948c0,0-12.393,15.254-31.461,11.44l-24.787,4.767S844.479,389.176,865.453,374.875Z" transform="translate(-680.777 -293.808)" fill="#575a89"/>
      <path id="Path_962" data-name="Path 962" d="M685.609,240.038l1.1-15.889L681.8,230.5l-25.74,19.067,2.86,105.823,8.578,4.768,14.3-113.445Z" transform="translate(-521.907 -163.738)" fill="#575a89"/>
      <path id="Path_963" data-name="Path 963" d="M817.34,381.631l-6.673.953s-4.767,8.578-4.767,9.534-1.907,50.528-1.907,50.528-3.337,50.051,2.383,59.585l16.878-18.159-5.914-16.639Z" transform="translate(-676.518 -296.75)" fill="#575a89"/>
      <path id="Path_964" data-name="Path 964" d="M706.914,483.892,708.23,515.8l-3.964-3.412Z" transform="translate(-526.554 -188.774)" opacity="0.3"/>
      <path id="Path_965" data-name="Path 965" d="M741.965,497.981l-1.391.689-1.492,42.75,3.446-4.435Z" transform="translate(-529.909 -190.132)" opacity="0.3"/>
      <path id="Path_967" data-name="Path 967" d="M928.5,512.457s-4.767,30.511,8.578,27.647,7.627-27.647,7.627-27.647Z" transform="translate(-688.533 -309.36)" fill="#ffb8b8"/>
      <path id="Path_968" data-name="Path 968" d="M903.918,372.136H912.5s5.72,2.86,6.674,11.44,14.3,46.714,14.3,46.714,15.254,62.922,14.3,71.5H923.937l1.907-17.156L900.1,415.994Z" transform="translate(-685.876 -295.835)" fill="#575a89"/>
      <path id="Path_978" data-name="Path 978" d="M842.831,301.9l-4-1.6s8.36-9.2,19.991-8.4l-3.271-3.6s7.994-3.2,15.267,5.2c3.821,4.418,8.243,9.611,11,15.459H886.1l-1.787,3.935,6.255,3.935-6.42-.707a22,22,0,0,1,.174,6.531,8.444,8.444,0,0,1-3.092,5.524h0s-4.959-10.264-4.959-11.864v4s-4-3.6-4-6l-2.181,2.8-1.091-4.4-13.452,4.4,2.181-3.6-8.36,1.2,3.272-4.4s-9.451,5.2-9.814,9.6a21.135,21.135,0,0,1-3.13,8.573S832.289,307.9,842.831,301.9Z" transform="translate(-679.809 -287.696)" fill="#2f2e41"/>
      <g id="Group_29" data-name="Group 29" transform="translate(203.138 226.215)">
        <path id="Path_966" data-name="Path 966" d="M1001.913,578.808a54.259,54.259,0,0,1-21.465,43.245q-1.451,1.1-2.972,2.114-.39.259-.78.5c-.945.606-1.9,1.17-2.878,1.7q-.585.324-1.17.628c-.079.043-.152.079-.231.115-.5.259-.995.513-1.5.75a53.1,53.1,0,0,1-6.818,2.7,53.881,53.881,0,0,1-11.37,2.308q-2.535.237-5.123.238a54.05,54.05,0,0,1-14.011-1.833,52.15,52.15,0,0,1-6.883-2.331l-.7-.292q-1.645-.714-3.225-1.536l-.454-.238q-1.721-.9-3.362-1.92a54.409,54.409,0,0,1-4.82-3.376q-1.18-.91-2.295-1.9c-.39-.332-.772-.682-1.147-1.025a55.437,55.437,0,0,1-4.149-4.289c-.52-.6-1.025-1.2-1.515-1.826a54.305,54.305,0,1,1,96.865-33.728Z" transform="translate(-893.3 -524.497)" fill="#e6e6e6"/>
        <circle id="Ellipse_188" data-name="Ellipse 188" cx="8.139" cy="8.139" r="8.139" transform="translate(63.114 62.363)" fill="#2f2e41"/>
        <path id="Path_969" data-name="Path 969" d="M992.749,610.777a8.139,8.139,0,0,1,7.165,12,8.137,8.137,0,1,0-13.518-8.941,8.119,8.119,0,0,1,6.354-3.061Z" transform="translate(-919.229 -548.189)" fill="#2f2e41"/>
        <circle id="Ellipse_189" data-name="Ellipse 189" cx="23.908" cy="23.908" r="23.908" transform="translate(32.135 22.668)" fill="#2f2e41"/>
        <path id="Path_970" data-name="Path 970" d="M942.172,564.98a23.9,23.9,0,0,1,33.134-2.507c-.2-.186-.39-.373-.592-.554a23.908,23.908,0,0,0-31.769,35.736c.2.18.411.351.619.523a23.9,23.9,0,0,1-1.391-33.2Z" transform="translate(-904.892 -533.237)" fill="#2f2e41"/>
        <circle id="Ellipse_190" data-name="Ellipse 190" cx="15.398" cy="15.398" r="15.398" transform="translate(40.443 39.485)" fill="#a0616a"/>
        <path id="Path_971" data-name="Path 971" d="M954.937,607.308s2.026,18.64-1.216,20.666,18.64,4.862,18.64,4.862-3.242-20.261,4.862-25.529Z" transform="translate(-910.038 -547.561)" fill="#a0616a"/>
        <path id="Path_972" data-name="Path 972" d="M981.813,647.063v5.887c-.945.606-1.9,1.17-2.878,1.7q-.585.325-1.17.628v.115h-.231c-.5.259-1,.512-1.5.751a53.161,53.161,0,0,1-6.818,2.7,53.876,53.876,0,0,1-11.37,2.308q-2.535.238-5.123.238a54.074,54.074,0,0,1-14.011-1.833,52.156,52.156,0,0,1-6.883-2.331l-.7-.292q-1.645-.715-3.225-1.536l-.454-.238q-1.72-.9-3.362-1.919a54.453,54.453,0,0,1-4.82-3.377q-1.179-.91-2.295-1.9c-.39-.332-.772-.682-1.147-1.025a55.354,55.354,0,0,1-4.149-4.289,19.981,19.981,0,0,1,.851-3.6l.008-.007a7.517,7.517,0,0,1,.39-.895c1.746-3.269,4.9-4.077,8.824-4.249,2.208-.1,4.654.007,7.244-.022,1.365-.007,2.77-.057,4.192-.187,8.918-.808,7.294-6.075,7.7-8.911.4-2.749,2.872-.367,3.037-.209l.007.007a31.467,31.467,0,0,0,16.182,2.842h.007a27.794,27.794,0,0,1,2.864-.216c2.511-.029,1.962.692,1.1,1.284a11.33,11.33,0,0,1-1.32.743s-.4,2.431-.808,6.082c-.39,3.492,6.3,5.13,6.854,5.252a.07.07,0,0,0,.036.015,13.466,13.466,0,0,1,7.424.187,8.805,8.805,0,0,1,5.541,6.3Z" transform="translate(-898.419 -552.06)" fill="#6c63ff"/>
        <path id="Path_973" data-name="Path 973" d="M935.692,658.771c-.021.657-.057,1.267-.1,1.833-.231-.1-.469-.195-.7-.292q-1.645-.714-3.225-1.536l-.454-.238q-1.72-.9-3.362-1.919a16.934,16.934,0,0,1,.187-1.717,31.415,31.415,0,0,0-2.525-17.626c-.195-.4-.31-.613-.31-.613s2.836-2.431,6.883,0a2.682,2.682,0,0,1,.671.592C935.446,640.431,935.973,651.888,935.692,658.771Z" transform="translate(-902.187 -555.436)" fill="#2f2e41"/>
        <path id="Path_974" data-name="Path 974" d="M998.028,661.536c-.007.246-.022.5-.036.751a53.145,53.145,0,0,1-6.818,2.7l-.137-3.449-.52-13.693a2.175,2.175,0,0,1,.252-1.139,2.212,2.212,0,0,1,1.973-1.2h4.949c.246,0,.418.5.534,1.4C998.541,649.408,998.389,655.014,998.028,661.536Z" transform="translate(-920.377 -558.2)" fill="#2f2e41"/>
        <path id="Path_975" data-name="Path 975" d="M797.018,443.487v15.4h3.566l4.538-4.862-.607,4.862h15.763l-.975-4.862,1.95,4.862h2.513v-15.4Z" transform="translate(-754.347 -407.851)" fill="#2f2e41"/>
        <ellipse id="Ellipse_191" data-name="Ellipse 191" cx="1.216" cy="2.228" rx="1.216" ry="2.228" transform="translate(39.024 49.414)" fill="#a0616a"/>
        <ellipse id="Ellipse_192" data-name="Ellipse 192" cx="1.216" cy="2.228" rx="1.216" ry="2.228" transform="translate(70.227 49.414)" fill="#a0616a"/>
        <path id="Path_976" data-name="Path 976" d="M1011.078,658.2q-1.451,1.1-2.972,2.115-.39.26-.78.5c-.946.606-1.9,1.17-2.879,1.7q-.585.325-1.17.628V651.676s1.566,1.248,4.047,3.326C1008.417,655.917,1009.685,657,1011.078,658.2Z" transform="translate(-923.932 -559.919)" fill="#6c63ff"/>
      </g>
    </g>
  </g>
</svg>
