<?xml version="1.0" encoding="iso-8859-1"?>
<!-- Generator: Adobe Illustrator 24.1.1, SVG Export Plug-In . SVG Version: 6.00 Build 0)  -->
<svg version="1.1" id="Capa_1" xmlns="http://www.w3.org/2000/svg" xmlns:xlink="http://www.w3.org/1999/xlink" x="0px" y="0px"
	 viewBox="-49 141 1584.12 428.52" style="enable-background:new -49 141 1584.12 428.52;" xml:space="preserve">
<g>
	<g>
		<path style="fill:#FFFFFF;" d="M917.54,273.236v96.711c0,14.817-4.038,26.23-12.113,34.24
			c-8.078,8.009-19.257,12.014-33.539,12.014c-15.486,0-27.766-4.371-36.842-13.115c-9.079-8.741-13.615-21.325-13.615-37.743
			h33.838c0,13.215,5.006,19.823,15.018,19.823c8.676,0,13.015-5.072,13.015-15.218v-96.711H917.54z"/>
		<path style="fill:#FFFFFF;" d="M1022.161,308.577c8.741,4.605,15.618,11.247,20.624,19.923c5.006,8.679,7.508,18.821,7.508,30.435
			s-2.502,21.759-7.508,30.435c-5.006,8.679-11.883,15.317-20.624,19.923c-8.744,4.605-18.655,6.908-29.734,6.908
			c-11.081,0-21.023-2.303-29.834-6.908s-15.718-11.244-20.724-19.923c-5.006-8.676-7.509-18.822-7.509-30.435
			s2.503-21.756,7.509-30.435c5.006-8.676,11.913-15.318,20.724-19.923c8.811-4.605,18.753-6.908,29.834-6.908
			C1003.505,301.668,1013.416,303.971,1022.161,308.577z M975.908,338.411c-4.474,4.74-6.708,11.582-6.708,20.523
			c0,8.945,2.234,15.752,6.708,20.424c4.471,4.674,9.977,7.008,16.519,7.008c6.539,0,12.014-2.334,16.419-7.008
			c4.405-4.671,6.607-11.479,6.607-20.424c0-8.941-2.202-15.784-6.607-20.523c-4.405-4.737-9.88-7.108-16.419-7.108
			C985.884,331.303,980.378,333.674,975.908,338.411z"/>
		<path style="fill:#FFFFFF;" d="M1162.52,308.577c7.274,4.605,13.016,11.213,17.22,19.823c4.205,8.61,6.308,18.79,6.308,30.535
			c0,11.613-2.103,21.759-6.308,30.435c-4.204,8.679-9.945,15.317-17.22,19.923c-7.277,4.605-15.518,6.908-24.729,6.908
			c-8.544,0-15.887-1.934-22.025-5.807c-6.141-3.87-10.611-9.142-13.415-15.818v20.224h-34.239v-148.17h34.239v56.665
			c2.804-6.673,7.274-11.945,13.415-15.818c6.139-3.87,13.481-5.807,22.025-5.807
			C1147.002,301.668,1155.243,303.971,1162.52,308.577z M1109.059,339.011c-4.605,4.875-6.908,11.513-6.908,19.923
			c0,8.278,2.303,14.886,6.908,19.823c4.605,4.94,10.512,7.409,17.72,7.409c7.34,0,13.247-2.403,17.721-7.208
			c4.471-4.805,6.708-11.479,6.708-20.023c0-8.541-2.237-15.217-6.708-20.023c-4.474-4.805-10.381-7.208-17.721-7.208
			C1119.571,331.703,1113.664,334.14,1109.059,339.011z"/>
		<path style="fill:#FFFFFF;" d="M1278.452,312.281c8.475,7.077,13.781,16.419,15.918,28.032h-32.037
			c-0.936-4.537-3.037-8.109-6.307-10.712c-3.272-2.603-7.377-3.904-12.314-3.904c-3.873,0-6.808,0.835-8.81,2.502
			c-2.003,1.671-3.004,4.039-3.004,7.108c0,3.473,1.833,6.076,5.506,7.809c3.67,1.736,9.442,3.473,17.32,5.206
			c8.541,2.002,15.549,4.039,21.024,6.107c5.472,2.071,10.212,5.44,14.216,10.111c4.005,4.674,6.007,10.947,6.007,18.822
			c0,6.407-1.736,12.083-5.206,17.02c-3.473,4.94-8.479,8.811-15.017,11.613c-6.542,2.804-14.285,4.205-23.227,4.205
			c-15.086,0-27.166-3.335-36.242-10.012c-9.079-6.673-14.616-16.219-16.619-28.633h33.038c0.532,4.806,2.568,8.479,6.107,11.013
			c3.535,2.537,8.109,3.804,13.716,3.804c3.87,0,6.808-0.901,8.81-2.703c2.003-1.802,3.004-4.17,3.004-7.108
			c0-3.87-1.837-6.639-5.507-8.31c-3.673-1.667-9.646-3.436-17.92-5.306c-8.278-1.733-15.087-3.604-20.424-5.606
			c-5.341-2.002-9.945-5.237-13.815-9.711c-3.874-4.471-5.807-10.578-5.807-18.321c0-10.012,3.804-18.121,11.413-24.328
			c7.608-6.207,18.352-9.311,32.236-9.311C1258.66,301.668,1269.973,305.207,1278.452,312.281z"/>
	</g>
	<g>
		<path style="fill:#FFFFFF;" d="M283.046,414.799L242.2,354.729h-26.431v60.069h-9.01V273.636h39.445
			c15.618,0,27.196,3.673,34.739,11.013c7.54,7.343,11.313,17.289,11.313,29.834c0,12.014-3.438,21.459-10.312,28.333
			c-6.877,6.876-16.854,10.781-29.935,11.713l41.447,60.27H283.046z M215.769,347.321h29.835c25.094,0,37.643-10.878,37.643-32.637
			c0-10.543-2.972-18.653-8.91-24.328c-5.941-5.672-15.518-8.51-28.732-8.51h-29.835V347.321z"/>
		<path style="fill:#FFFFFF;" d="M393.37,311.38c8.141,4.474,14.517,10.912,19.122,19.322s6.908,18.29,6.908,29.634
			c0,11.482-2.303,21.424-6.908,29.834c-4.605,8.41-10.981,14.852-19.122,19.322c-8.144,4.475-17.354,6.708-27.632,6.708
			c-10.146,0-19.29-2.233-27.431-6.708c-8.145-4.471-14.552-10.943-19.223-19.422c-4.674-8.475-7.008-18.387-7.008-29.734
			c0-11.344,2.334-21.225,7.008-29.634c4.671-8.41,11.078-14.848,19.223-19.322c8.141-4.471,17.285-6.708,27.431-6.708
			C376.016,304.672,385.227,306.909,393.37,311.38z M343.814,317.887c-6.742,3.473-12.183,8.779-16.318,15.918
			c-4.14,7.143-6.207,15.987-6.207,26.531c0,10.546,2.067,19.422,6.207,26.63c4.136,7.208,9.576,12.549,16.318,16.019
			c6.739,3.473,14.048,5.206,21.925,5.206c7.875,0,15.184-1.733,21.926-5.206c6.738-3.47,12.18-8.811,16.318-16.019
			c4.136-7.208,6.207-16.084,6.207-26.63c0-10.543-2.036-19.388-6.106-26.531c-4.074-7.139-9.479-12.445-16.219-15.918
			c-6.742-3.47-14.116-5.206-22.126-5.206C357.862,312.681,350.553,314.417,343.814,317.887z"/>
		<path style="fill:#FFFFFF;" d="M455.641,266.628v148.17h-9.01v-148.17H455.641z"/>
		<path style="fill:#FFFFFF;" d="M497.085,266.628v148.17h-9.01v-148.17H497.085z"/>
		<path style="fill:#FFFFFF;" d="M528.418,267.93c1.401-1.401,3.235-2.102,5.507-2.102c2.268,0,4.136,0.701,5.606,2.102
			c1.467,1.402,2.202,3.172,2.202,5.306c0,2.271-0.735,4.105-2.202,5.506c-1.471,1.402-3.339,2.103-5.606,2.103
			c-2.271,0-4.105-0.701-5.507-2.103c-1.401-1.401-2.103-3.235-2.103-5.506C526.316,271.102,527.017,269.332,528.418,267.93z
			 M538.53,306.074v108.725h-9.01V306.074H538.53z"/>
		<path style="fill:#FFFFFF;" d="M652.659,315.885c8.01,8.009,12.014,19.823,12.014,35.441v63.473h-9.01v-63.073
			c0-13.081-3.272-23.058-9.812-29.935c-6.542-6.874-15.486-10.312-26.831-10.312c-11.747,0-21.192,3.838-28.332,11.513
			c-7.143,7.677-10.713,18.99-10.713,33.939v57.867h-9.01V306.074h9.01v28.633c2.669-10.143,7.775-17.82,15.318-23.026
			c7.54-5.206,16.25-7.809,26.13-7.809C634.238,303.871,644.65,307.875,652.659,315.885z"/>
		<path style="fill:#FFFFFF;" d="M772.594,313.982c8.141,6.208,13.682,14.385,16.619,24.528v-32.437h9.011v111.928
			c0,10.012-2.171,18.822-6.508,26.431c-4.339,7.608-10.28,13.446-17.82,17.521c-7.543,4.07-15.853,6.106-24.929,6.106
			c-13.615,0-24.862-3.304-33.738-9.911c-8.879-6.607-14.786-15.587-17.721-26.931h8.811c2.668,8.81,7.608,15.817,14.816,21.023
			c7.209,5.206,16.351,7.81,27.432,7.81c7.608,0,14.517-1.702,20.724-5.106c6.207-3.403,11.079-8.278,14.617-14.616
			c3.535-6.342,5.306-13.785,5.306-22.326v-35.641c-2.938,10.146-8.479,18.321-16.619,24.528
			c-8.144,6.207-18.155,9.311-30.034,9.311c-10.146,0-19.122-2.233-26.931-6.708c-7.81-4.471-13.916-10.943-18.321-19.422
			c-4.405-8.475-6.607-18.387-6.607-29.734c0-11.344,2.202-21.225,6.607-29.634s10.512-14.848,18.321-19.322
			c7.809-4.471,16.785-6.708,26.931-6.708C754.439,304.672,764.451,307.775,772.594,313.982z M712.025,325.496
			c-8.078,8.544-12.113,20.157-12.113,34.84c0,14.817,4.004,26.499,12.014,35.04c8.009,8.545,18.887,12.815,32.637,12.815
			c8.541,0,16.219-1.969,23.026-5.907c6.809-3.936,12.114-9.542,15.919-16.819c3.804-7.274,5.706-15.649,5.706-25.129
			c0-9.477-1.902-17.82-5.706-25.029c-3.805-7.208-9.11-12.78-15.919-16.719c-6.808-3.936-14.485-5.907-23.026-5.907
			C730.947,312.681,720.1,316.955,712.025,325.496z"/>
	</g>
</g>
<polygon style="fill:#FFFFFF;" points="129.118,399.51 88.271,355.46 129.118,311.01 171.968,311.01 131.12,355.46 171.968,399.51 
	"/>
<polygon style="fill:#FFFFFF;" points="1330.763,311.01 1373.611,311.01 1414.459,355.46 1373.611,399.51 1330.763,399.51 
	1371.609,355.46 "/>
</svg>
