<svg xmlns="http://www.w3.org/2000/svg" xmlns:xlink="http://www.w3.org/1999/xlink" width="452.109" height="266.45" viewBox="0 0 452.109 266.45">
  <defs>
    <linearGradient id="linear-gradient" x1="0.531" y1="1.017" x2="0.531" y2="-0.007" gradientUnits="objectBoundingBox">
      <stop offset="0" stop-color="gray" stop-opacity="0.251"/>
      <stop offset="0.54" stop-color="gray" stop-opacity="0.122"/>
      <stop offset="1" stop-color="gray" stop-opacity="0.102"/>
    </linearGradient>
    <linearGradient id="linear-gradient-2" x1="0.5" y1="1" x2="0.5" y2="0.001" xlink:href="#linear-gradient"/>
  </defs>
  <g id="Grupo_51" data-name="Grupo 51" transform="translate(-70.527 -547.837)">
    <g id="undraw_co-working_825n" transform="translate(70.527 547.837)">
      <rect id="Rectángulo_64" data-name="Rectángulo 64" width="20.767" height="31.438" transform="translate(375.434 39.901)" fill="#6c63ff" opacity="0.1"/>
      <rect id="Rectángulo_65" data-name="Rectángulo 65" width="16.73" height="25.323" transform="translate(377.451 42.958)" fill="#6c63ff" opacity="0.1"/>
      <rect id="Rectángulo_66" data-name="Rectángulo 66" width="31.895" height="31.438" transform="translate(333.28 18.062)" fill="#6c63ff" opacity="0.1"/>
      <rect id="Rectángulo_67" data-name="Rectángulo 67" width="25.694" height="25.323" transform="translate(336.379 21.119)" fill="#6c63ff" opacity="0.1"/>
      <rect id="Rectángulo_70" data-name="Rectángulo 70" width="9.96" height="111.297" transform="translate(125.37 139.552)" fill="#d6d6e3"/>
      <path id="Trazado_278" data-name="Trazado 278" d="M955.752,384.45V281.787A10.792,10.792,0,0,1,966.545,271h0a10.792,10.792,0,0,1,10.772,10.787V406.035a10.792,10.792,0,0,1-10.792,10.792H899.682a10.793,10.793,0,0,1-10.792-10.792h0a10.793,10.793,0,0,1,10.792-10.792H944.96A10.792,10.792,0,0,0,955.752,384.45Z" transform="translate(-529.51 -233.212)" fill="#aebee1"/>
      <path id="Trazado_279" data-name="Trazado 279" d="M955.752,384.45V281.787A10.792,10.792,0,0,1,966.545,271h0a10.792,10.792,0,0,1,10.772,10.787V406.035a10.792,10.792,0,0,1-10.792,10.792H899.682a10.793,10.793,0,0,1-10.792-10.792h0a10.793,10.793,0,0,1,10.792-10.792H944.96A10.792,10.792,0,0,0,955.752,384.45Z" transform="translate(-529.51 -233.212)" fill="#535461"/>
      <path id="Trazado_280" data-name="Trazado 280" d="M888.92,405.456A10.793,10.793,0,0,1,899.7,395.242h45.277a10.792,10.792,0,0,0,10.792-10.792V281.787A10.792,10.792,0,0,1,966.042,271V405.456Z" transform="translate(-529.524 -233.212)" fill="#d6d6e3"/>
      <path id="Trazado_281" data-name="Trazado 281" d="M211.309,391.265V288.6a10.792,10.792,0,0,0-10.767-10.792h0A10.792,10.792,0,0,0,189.75,288.6V412.85a10.793,10.793,0,0,0,10.792,10.818h66.837a10.793,10.793,0,0,0,10.792-10.793h0a10.792,10.792,0,0,0-10.792-10.792H222.107a10.793,10.793,0,0,1-10.8-10.818Z" transform="translate(-185.448 -236.563)" fill="#aebee1"/>
      <path id="Trazado_282" data-name="Trazado 282" d="M211.309,391.265V288.6a10.792,10.792,0,0,0-10.767-10.792h0A10.792,10.792,0,0,0,189.75,288.6V412.85a10.793,10.793,0,0,0,10.792,10.818h66.837a10.793,10.793,0,0,0,10.792-10.793h0a10.792,10.792,0,0,0-10.792-10.792H222.107a10.793,10.793,0,0,1-10.8-10.818Z" transform="translate(-185.448 -236.563)" fill="#535461"/>
      <path id="Trazado_283" data-name="Trazado 283" d="M289.106,412.286a10.793,10.793,0,0,0-10.777-10.214H233.057a10.792,10.792,0,0,1-10.8-10.792V288.617A10.792,10.792,0,0,0,212,277.84l0,134.446Z" transform="translate(-196.398 -236.578)" fill="#d6d6e3"/>
      <rect id="Rectángulo_71" data-name="Rectángulo 71" width="9.96" height="113.892" transform="translate(322.412 139.552)" fill="#d6d6e3"/>
      <rect id="Rectángulo_72" data-name="Rectángulo 72" width="9.96" height="8.228" transform="translate(125.37 139.552)" opacity="0.1"/>
      <rect id="Rectángulo_73" data-name="Rectángulo 73" width="9.96" height="8.228" transform="translate(322.412 139.552)" opacity="0.1"/>
      <path id="Trazado_284" data-name="Trazado 284" d="M496.221,337.92q-.239,2.631-.6,5.333H494.21V337.92Z" transform="translate(-335.279 -266.145)" opacity="0.1"/>
      <path id="Trazado_285" data-name="Trazado 285" d="M537.029,393.324a3.072,3.072,0,0,1-2.88,3.281h-30.4v-3.169h25.292a1.589,1.589,0,0,0,1.224-2.377l-22.936-46.649a2.031,2.031,0,0,0-1.778-1.148H494.21V337.93h14.327a1.422,1.422,0,0,1,1.244.8l26.293,50.788A8.634,8.634,0,0,1,537.029,393.324Z" transform="translate(-335.279 -266.15)" fill="#535461"/>
      <path id="Trazado_286" data-name="Trazado 286" d="M464.422,338.7l-.416.7-3.9-2.6,12.052-92.673h3.1s.127.427.335,1.239C477.677,253.378,487.881,298.737,464.422,338.7Z" transform="translate(-318.498 -219.989)" fill="#535461"/>
      <path id="Trazado_287" data-name="Trazado 287" d="M475.6,245.369,464.422,338.7l-.416.7-3.9-2.6,12.052-92.673h3.1S475.387,244.572,475.6,245.369Z" transform="translate(-318.498 -219.989)" opacity="0.1"/>
      <rect id="Rectángulo_74" data-name="Rectángulo 74" width="96.136" height="7.364" transform="translate(138.086 118.637) rotate(-83.17)" fill="#d6d6e3"/>
      <path id="Trazado_288" data-name="Trazado 288" d="M400.884,446.233a.873.873,0,0,1-.868.868h-1.3a.868.868,0,0,1-.869-.869.421.421,0,0,1,0-.1.868.868,0,0,1,.858-.762h1.3a.873.873,0,0,1,.838.66A.794.794,0,0,1,400.884,446.233Z" transform="translate(-287.856 -319.023)" fill="#e3edf9"/>
      <path id="Trazado_289" data-name="Trazado 289" d="M408.557,446.233a.873.873,0,0,1-.868.868h-1.3a.868.868,0,0,1-.868-.868.85.85,0,0,1,.036-.239.816.816,0,0,1,.218-.371.848.848,0,0,1,.609-.254h1.3a.873.873,0,0,1,.8.508A.894.894,0,0,1,408.557,446.233Z" transform="translate(-291.633 -319.023)" fill="#e3edf9"/>
      <path id="Trazado_290" data-name="Trazado 290" d="M415.377,446.228a.874.874,0,0,1-.868.868h-1.3a.869.869,0,0,1-.869-.868.824.824,0,0,1,.076-.361.884.884,0,0,1,.787-.508h1.3a.863.863,0,0,1,.869.868Z" transform="translate(-294.989 -319.018)" fill="#e3edf9"/>
      <path id="Trazado_291" data-name="Trazado 291" d="M423.058,446.233a.874.874,0,0,1-.868.868h-1.3a.868.868,0,0,1-.711-1.366l.1-.112a.849.849,0,0,1,.609-.254h1.3a.873.873,0,0,1,.63.279A.837.837,0,0,1,423.058,446.233Z" transform="translate(-298.77 -319.023)" fill="#e3edf9"/>
      <path id="Trazado_292" data-name="Trazado 292" d="M400.859,446.66a.8.8,0,0,1,.025.208.874.874,0,0,1-.868.869h-1.3a.869.869,0,0,1-.869-.869.422.422,0,0,1,0-.1Z" transform="translate(-287.856 -319.658)" opacity="0.1"/>
      <path id="Trazado_293" data-name="Trazado 293" d="M408.486,446.39a.894.894,0,0,1,.071.34.874.874,0,0,1-.868.869h-1.3a.868.868,0,0,1-.868-.869.85.85,0,0,1,.036-.239Z" transform="translate(-291.633 -319.525)" opacity="0.1"/>
      <path id="Trazado_294" data-name="Trazado 294" d="M415.255,446.16a.866.866,0,0,1-.736,1.326h-1.3a.869.869,0,0,1-.868-.869.822.822,0,0,1,.076-.361Z" transform="translate(-294.994 -319.412)" opacity="0.1"/>
      <path id="Trazado_295" data-name="Trazado 295" d="M423.058,446.5a.873.873,0,0,1-.868.868h-1.3a.868.868,0,0,1-.711-1.366l2.641-.091a.838.838,0,0,1,.239.589Z" transform="translate(-298.77 -319.289)" opacity="0.1"/>
      <path id="Trazado_296" data-name="Trazado 296" d="M417,450.212H391.89v-1.143a1.955,1.955,0,0,1,1.889-1.955l20.143-.7a2.986,2.986,0,0,1,3.088,2.981Z" transform="translate(-284.926 -319.538)" fill="#d6d6e3"/>
      <path id="Trazado_297" data-name="Trazado 297" d="M685.309,393.324a3.073,3.073,0,0,0,2.88,3.281H718.6v-3.169H693.278a1.589,1.589,0,0,1-1.224-2.377l22.936-46.649a2.032,2.032,0,0,1,1.778-1.148h11.351V337.93H713.8a1.422,1.422,0,0,0-1.224.8l-26.293,50.788A8.636,8.636,0,0,0,685.309,393.324Z" transform="translate(-429.323 -266.15)" fill="#535461"/>
      <path id="Trazado_298" data-name="Trazado 298" d="M780.531,338.7l.417.7,3.9-2.6L772.791,244.13h-3.1s-.127.427-.335,1.239C767.27,253.378,757.047,298.737,780.531,338.7Z" transform="translate(-468.713 -219.989)" fill="#535461"/>
      <path id="Trazado_299" data-name="Trazado 299" d="M773.23,245.369,784.4,338.7l.417.7,3.9-2.6L776.668,244.13h-3.1S773.438,244.572,773.23,245.369Z" transform="translate(-472.591 -219.989)" opacity="0.1"/>
      <rect id="Rectángulo_75" data-name="Rectángulo 75" width="7.364" height="96.136" transform="translate(300.912 24.05) rotate(-6.83)" fill="#d6d6e3"/>
      <path id="Trazado_300" data-name="Trazado 300" d="M860,446.233a.874.874,0,0,0,.868.868h1.3a.868.868,0,0,0,.868-.869.409.409,0,0,0,0-.1.868.868,0,0,0-.858-.762h-1.3a.873.873,0,0,0-.838.66.779.779,0,0,0-.041.2Z" transform="translate(-515.292 -319.023)" fill="#e3edf9"/>
      <path id="Trazado_301" data-name="Trazado 301" d="M852.328,446.233a.874.874,0,0,0,.868.869h1.3a.869.869,0,0,0,.868-.869.85.85,0,0,0-.036-.239.82.82,0,0,0-.218-.371.848.848,0,0,0-.609-.254h-1.326a.873.873,0,0,0-.8.508A.891.891,0,0,0,852.328,446.233Z" transform="translate(-511.516 -319.023)" fill="#e3edf9"/>
      <path id="Trazado_302" data-name="Trazado 302" d="M845.51,446.228a.874.874,0,0,0,.869.868h1.3a.868.868,0,0,0,.868-.868.822.822,0,0,0-.076-.361.883.883,0,0,0-.787-.508h-1.3a.864.864,0,0,0-.869.868Z" transform="translate(-508.161 -319.018)" fill="#e3edf9"/>
      <path id="Trazado_303" data-name="Trazado 303" d="M837.83,446.233a.874.874,0,0,0,.869.868H840a.868.868,0,0,0,.711-1.366l-.1-.112a.849.849,0,0,0-.609-.254h-1.3a.874.874,0,0,0-.63.279A.839.839,0,0,0,837.83,446.233Z" transform="translate(-504.382 -319.023)" fill="#e3edf9"/>
      <path id="Trazado_304" data-name="Trazado 304" d="M860.025,446.66a.793.793,0,0,0-.025.208.873.873,0,0,0,.868.869h1.3a.869.869,0,0,0,.869-.869.442.442,0,0,0,0-.1Z" transform="translate(-515.292 -319.658)" opacity="0.1"/>
      <path id="Trazado_305" data-name="Trazado 305" d="M852.4,446.39a.9.9,0,0,0-.071.34.873.873,0,0,0,.868.869h1.3a.868.868,0,0,0,.868-.869.85.85,0,0,0-.036-.239Z" transform="translate(-511.518 -319.525)" opacity="0.1"/>
      <path id="Trazado_306" data-name="Trazado 306" d="M845.632,446.16a.866.866,0,0,0,.736,1.326h1.3a.869.869,0,0,0,.868-.869.822.822,0,0,0-.076-.361Z" transform="translate(-508.157 -319.412)" opacity="0.1"/>
      <path id="Trazado_307" data-name="Trazado 307" d="M837.83,446.5a.874.874,0,0,0,.869.868H840A.869.869,0,0,0,840.71,446l-2.641-.091A.839.839,0,0,0,837.83,446.5Z" transform="translate(-504.382 -319.289)" opacity="0.1"/>
      <path id="Trazado_308" data-name="Trazado 308" d="M822.485,450.212H847.6v-1.143a1.955,1.955,0,0,0-1.889-1.955l-20.142-.7a2.986,2.986,0,0,0-3.088,2.981Z" transform="translate(-496.828 -319.538)" fill="#d6d6e3"/>
      <path id="Trazado_309" data-name="Trazado 309" d="M908.707,344.223c11.717-19.873,7.471-59.96,7.943-60.727.421-.675-1.193-19.553-11.961-24.165-1.945-3.855-3.86-8.2-3.86-8.2a3.424,3.424,0,0,1-.62.462q-.127-.345-.249-.7c-.137-.4-.264-.813-.391-1.224a7.88,7.88,0,0,0,.919.234,3.829,3.829,0,0,0,2.458-.218,2.741,2.741,0,0,0,.706-.543,5.353,5.353,0,0,0,1.712-2.539L908.5,239.1a58.416,58.416,0,0,0,3.586-10.386,29.242,29.242,0,0,0-1.25-16.181,10.322,10.322,0,0,0-3.509-5.119c-3.489-2.367-8.344-.731-12.331-2.118-1.31-.457-2.494-1.229-3.8-1.7a11.7,11.7,0,0,0-8.746.792c-2.722,1.265-4.926,3.276-7.308,5.079-1.173.9-3.047,1.828-4.429,3.047-1.341,1.046-2.372,2.311-2.174,3.977.224,1.9,2.23,3.047,4.1,3.494.31.071.63.127.945.183a18.284,18.284,0,0,0,7.806,30.371,42.828,42.828,0,0,1,2.468,5.551q.137.391.269.787a31.694,31.694,0,0,0-5.968,2c-1.458,1.209,1.595,11.793,1.595,11.793-.777.985-1.569,2.108-2.372,3.311a71.381,71.381,0,0,0-11.255,30.762c-.508,4.017-1.168,8.126-2.006,12.032l-36.4-7.3-.076.9-.868-.213h0l-2.732-.675-.107.615-.416-.2c-6.77-3.174-18.177-7.227-25.9-3.047-8.151,4.388,9.442,10.219,20.732,13.322a18.342,18.342,0,0,0-10.158,3.184c-8.187,6.135,14.967,9.33,25.9,10.462l.442.046v.234l3.789.35.889.081.086,1.351s5.424.889,12.672,1.966a221.033,221.033,0,0,1-25.6,4.337,18.729,18.729,0,0,0-15.958,13.433,11.947,11.947,0,0,0-.183,6.46c2.113,7.38-.467,61.667-1.051,73.358l-13.382,7.7s-20.823,2.539-6.953,7.42a28.5,28.5,0,0,0,3.824,1.016c-1.828,1.178-1.671,2.717,3.718,4.606,13.88,4.866,46.146-.213,46.146-.213s-.706-5.719-1.854-10.472l.355.03s-3.332-12.4,1.722-18.649-.848-53.835-.848-53.835,8.847-3.662,35.292-3.9c21.331,5.475,31.727-14.124,31.58-24.256A5.4,5.4,0,0,1,908.707,344.223Z" transform="translate(-477.929 -199.781)" fill="url(#linear-gradient)"/>
      <path id="Trazado_310" data-name="Trazado 310" d="M842.546,412.972l-2.26,9.142s-2.031-.457-5.079-1.239c-10.32-2.671-32.088-9.086-23.363-13.794,7.522-4.063,18.6-.112,25.176,2.971,2.407,1.133,4.215,2.148,5.023,2.626C842.383,412.87,842.546,412.972,842.546,412.972Z" transform="translate(-490.601 -299.327)" fill="#f8b9bf"/>
      <path id="Trazado_311" data-name="Trazado 311" d="M866.5,420.15l-1.625,6.6s-2.031-.457-5.079-1.239l1.833-10.823c2.407,1.133,4.215,2.148,5.023,2.626Z" transform="translate(-515.194 -303.925)" opacity="0.1"/>
      <path id="Trazado_312" data-name="Trazado 312" d="M827.2,408.219l-6.308-1.559,1.961-11.559,5.043,1.244Z" transform="translate(-475.883 -284.766)" fill="#d9dfe8"/>
      <path id="Trazado_313" data-name="Trazado 313" d="M830.672,408.853l-2.722-.67,1.026-11.793,2.392.589Z" transform="translate(-479.357 -285.401)" opacity="0.1"/>
      <path id="Trazado_314" data-name="Trazado 314" d="M931.945,344.256s-12.113-7-17.5,13.078-5.891,29.325-5.891,29.325L870.3,379.01l-1.214,13.972s40.9,13.2,46.044,12.245,21.839-28.949,21.839-28.949S952.149,354.586,931.945,344.256Z" transform="translate(-519.766 -268.681)" fill="#312f73"/>
      <g id="Grupo_47" data-name="Grupo 47" transform="translate(319.226 74.901)" opacity="0.1">
        <path id="Trazado_315" data-name="Trazado 315" d="M842.546,412.972l-2.26,9.142s-2.031-.457-5.079-1.239c-10.32-2.671-32.088-9.086-23.363-13.794,7.522-4.063,18.6-.112,25.176,2.971,2.407,1.133,4.215,2.148,5.023,2.626C842.383,412.87,842.546,412.972,842.546,412.972Z" transform="translate(-809.826 -374.228)"/>
        <path id="Trazado_316" data-name="Trazado 316" d="M866.5,420.15l-1.625,6.6s-2.031-.457-5.079-1.239l1.833-10.823c2.407,1.133,4.215,2.148,5.023,2.626Z" transform="translate(-834.419 -378.826)" opacity="0.1"/>
        <path id="Trazado_317" data-name="Trazado 317" d="M827.2,408.219l-6.308-1.559,1.961-11.559,5.043,1.244Z" transform="translate(-795.108 -359.668)"/>
        <path id="Trazado_318" data-name="Trazado 318" d="M830.672,408.853l-2.722-.67,1.026-11.793,2.392.589Z" transform="translate(-798.582 -360.302)" opacity="0.1"/>
        <path id="Trazado_319" data-name="Trazado 319" d="M931.945,345.256s-12.113-7-17.5,13.078-5.891,29.325-5.891,29.325L870.3,380.01l-1.214,13.972s40.9,13.2,46.044,12.245,21.839-28.949,21.839-28.949S952.149,355.586,931.945,345.256Z" transform="translate(-838.991 -344.075)"/>
      </g>
      <path id="Trazado_320" data-name="Trazado 320" d="M814.985,650.813l-15.617,8.995s-20.234,2.478-6.755,7.2,44.815-.208,44.815-.208-1.742-14.078-4.17-16.044S814.985,650.813,814.985,650.813Z" transform="translate(-479.851 -419.676)" fill="#68739d"/>
      <path id="Trazado_321" data-name="Trazado 321" d="M899.372,452.775s-7.771,4.063-21.575,7.573a216.221,216.221,0,0,1-25.216,4.3,18.187,18.187,0,0,0-15.5,13.017,11.6,11.6,0,0,0-.178,6.3c2.3,8.04-1.133,73.394-1.133,73.394l23.718,2.194s-3.235-12.042,1.676-18.111-.823-52.266-.823-52.266,8.593-3.555,34.272-3.789c23.789,6.095,33.591-19.944,29.919-27.243S899.372,452.775,899.372,452.775Z" transform="translate(-503.368 -322.553)" fill="#6394e2"/>
      <g id="Grupo_48" data-name="Grupo 48" transform="translate(308.131 129.99)" opacity="0.1">
        <path id="Trazado_322" data-name="Trazado 322" d="M814.985,650.813l-15.617,8.995s-20.234,2.478-6.755,7.2,44.815-.208,44.815-.208-1.742-14.078-4.17-16.044S814.985,650.813,814.985,650.813Z" transform="translate(-787.982 -549.665)"/>
        <path id="Trazado_323" data-name="Trazado 323" d="M899.372,452.775s-7.771,4.063-21.575,7.573a216.221,216.221,0,0,1-25.216,4.3,18.187,18.187,0,0,0-15.5,13.017,11.6,11.6,0,0,0-.178,6.3c2.3,8.04-1.133,73.394-1.133,73.394l23.718,2.194s-3.235-12.042,1.676-18.111-.823-52.266-.823-52.266,8.593-3.555,34.272-3.789c23.789,6.095,33.591-19.944,29.919-27.243S899.372,452.775,899.372,452.775Z" transform="translate(-811.499 -452.543)"/>
      </g>
      <path id="Trazado_324" data-name="Trazado 324" d="M829.409,661.563l-15.617,8.995s-20.224,2.458-6.755,7.2,44.815-.208,44.815-.208-1.742-14.079-4.17-16.044S829.409,661.563,829.409,661.563Z" transform="translate(-486.951 -424.966)" fill="#68739d"/>
      <path id="Trazado_325" data-name="Trazado 325" d="M908.983,496.122c-25.678.234-34.272,3.789-34.272,3.789s5.734,46.217.823,52.266-1.676,18.111-1.676,18.111l-23.718-2.194s.041-.772.107-2.153c.569-11.356,3.073-64.074,1.016-71.24a11.6,11.6,0,0,1,.178-6.277,18.193,18.193,0,0,1,15.5-13.047,210.07,210.07,0,0,0,25.211-4.3l.4-.1c13.561-3.484,21.179-7.471,21.179-7.471s21.488-1.93,25.16,5.368a8.635,8.635,0,0,1,.752,3.682C939.816,482.4,929.709,501.44,908.983,496.122Z" transform="translate(-510.44 -327.835)" fill="#6394e2"/>
      <path id="Trazado_326" data-name="Trazado 326" d="M863.729,438.563l-.869,9.4s-2.087-.147-5.19-.472c-10.6-1.1-33.083-4.2-25.135-10.158,6.836-5.119,18.375-2.885,25.338-.813,2.54.762,4.49,1.5,5.358,1.849C863.551,438.486,863.729,438.563,863.729,438.563Z" transform="translate(-500.956 -313.526)" fill="#f8b9bf"/>
      <path id="Trazado_327" data-name="Trazado 327" d="M993.481,299s-3.179,2.489-7.064,5.221c-4.261.965-9.208,1.762-12.773,2.28,1.275-4.063.508-8.634-.929-12.641a47.591,47.591,0,0,0-6.374-11.722l21.493-6.709c-1.686,4.271-.924,9.142.508,13.378A44.114,44.114,0,0,0,993.481,299Z" transform="translate(-567.625 -235.392)" fill="#f8b9bf"/>
      <path id="Trazado_328" data-name="Trazado 328" d="M889.455,443.448l-.625,6.75s-2.088-.147-5.191-.472l.2-10.975c2.54.762,4.49,1.5,5.358,1.849Z" transform="translate(-526.926 -315.765)" opacity="0.1"/>
      <path id="Trazado_329" data-name="Trazado 329" d="M851.25,431.391l-6.47-.6.213-11.722,5.175.477Z" transform="translate(-487.64 -296.563)" fill="#d9dfe8"/>
      <path id="Trazado_330" data-name="Trazado 330" d="M999.657,311.939s-3.179,2.489-7.064,5.221c-4.261.965-9.208,1.762-12.773,2.28,1.275-4.063.508-8.634-.929-12.641,5.251-1.524,12.763-3.494,15.632-5.079A44.12,44.12,0,0,0,999.657,311.939Z" transform="translate(-573.801 -248.33)" opacity="0.1"/>
      <path id="Trazado_331" data-name="Trazado 331" d="M989.625,302.22s3.6,8.162,5.861,11.849-26.318,7.11-26.318,7.11-2.966-10.274-1.549-11.453S987.233,304.607,989.625,302.22Z" transform="translate(-568.065 -248.576)" fill="#d9dfe8"/>
      <path id="Trazado_332" data-name="Trazado 332" d="M980.781,472.562a25.715,25.715,0,0,1-4.449,5.759c-12.626,12-33.322-.508-42.662-7.344,13.561-3.484,21.179-7.471,21.179-7.471s21.488-1.93,25.161,5.368A8.635,8.635,0,0,1,980.781,472.562Z" transform="translate(-551.547 -327.835)" opacity="0.1"/>
      <path id="Trazado_333" data-name="Trazado 333" d="M971.836,404.965c-14.353,13.631-39.107-4.419-45.78-9.736-1.082-.863-1.686-1.4-1.686-1.4,2.636-2.468,4.952-7.7,6.785-14.1a123.754,123.754,0,0,0,3.692-18.68,69.321,69.321,0,0,1,10.93-29.879c.777-1.168,1.524-2.26,2.3-3.215,5.419-6.892,14.525-11.27,14.525-11.27,19.218-5.617,21.8,22.89,21.29,23.713S988.52,389.114,971.836,404.965Z" transform="translate(-546.97 -255.337)" fill="#312f73"/>
      <path id="Trazado_334" data-name="Trazado 334" d="M973.7,383.985s-12.357,30.168-17.3,31.89c-2.829.98-17.939-.879-30.341-2.651-1.082-.863-1.686-1.4-1.686-1.4,2.636-2.468,4.952-7.7,6.785-14.1l15.973.762s-.889-9.213,1.458-29.873,15.353-15.541,15.353-15.541C985.458,360.282,973.7,383.985,973.7,383.985Z" transform="translate(-546.97 -273.326)" opacity="0.1"/>
      <path id="Trazado_335" data-name="Trazado 335" d="M854.095,431.637l-2.793-.259-.742-11.808,2.453.223Z" transform="translate(-490.484 -296.809)" opacity="0.1"/>
      <path id="Trazado_336" data-name="Trazado 336" d="M947.62,350.456S934.614,345.342,932.267,366s-1.458,29.873-1.458,29.873l-38.97-1.864.879,14s42.413,6.963,47.355,5.246,17.3-31.89,17.3-31.89S969.119,357.658,947.62,350.456Z" transform="translate(-530.961 -272.038)" fill="#312f73"/>
      <path id="Trazado_337" data-name="Trazado 337" d="M986.259,285.012c-.569-3.088,2.656-3.047,3.814-5.952l-21.494,6.709a47.414,47.414,0,0,1,3.982,6.333,17.828,17.828,0,0,0,3.418.66C981.1,293.25,982.7,288.207,986.259,285.012Z" transform="translate(-568.727 -237.179)" opacity="0.1"/>
      <circle id="Elipse_72" data-name="Elipse 72" cx="17.755" cy="17.755" r="17.755" transform="translate(388.419 52.096) rotate(-84.72)" fill="#f8b9bf"/>
      <path id="Trazado_338" data-name="Trazado 338" d="M949.577,223.732c.218,1.849,2.169,2.976,3.982,3.393s3.779.437,5.368,1.407c2.539,1.564,3.225,5.038,2.905,8.025-.178,1.686-.432,3.753.95,4.733a3.68,3.68,0,0,0,1.422.508,13.337,13.337,0,0,0,4.378.152,6.225,6.225,0,0,1,2.539-.066,3.864,3.864,0,0,1,2.377,3.144c.259,1.356.117,2.768.325,4.134a8.583,8.583,0,0,0,6.765,6.978,3.723,3.723,0,0,0,2.387-.213,4.77,4.77,0,0,0,1.874-2.6l3.047-7.293a56.8,56.8,0,0,0,3.484-10.087,28.4,28.4,0,0,0-1.214-15.714,10.07,10.07,0,0,0-3.408-4.972c-3.388-2.3-8.126-.711-11.976-2.032-1.275-.442-2.422-1.193-3.692-1.646a11.371,11.371,0,0,0-8.5.772c-2.646,1.234-4.784,3.179-7.11,4.952C953.467,218.876,949.2,220.537,949.577,223.732Z" transform="translate(-559.363 -203.719)" opacity="0.1"/>
      <path id="Trazado_339" data-name="Trazado 339" d="M950.5,222.962c.218,1.849,2.169,2.976,3.982,3.393s3.779.437,5.368,1.407c2.54,1.564,3.225,5.038,2.905,8.024-.178,1.686-.432,3.753.95,4.733a3.68,3.68,0,0,0,1.422.508,13.336,13.336,0,0,0,4.378.152,6.226,6.226,0,0,1,2.54-.066,3.864,3.864,0,0,1,2.377,3.144c.259,1.356.117,2.768.325,4.134a8.584,8.584,0,0,0,6.765,6.978,3.723,3.723,0,0,0,2.387-.213,4.771,4.771,0,0,0,1.874-2.6l3.047-7.293a56.822,56.822,0,0,0,3.484-10.087,28.4,28.4,0,0,0-1.214-15.714,10.07,10.07,0,0,0-3.408-4.972c-3.387-2.3-8.126-.711-11.976-2.032-1.275-.442-2.423-1.194-3.692-1.646a11.372,11.372,0,0,0-8.5.772c-2.646,1.234-4.784,3.179-7.11,4.952C954.393,218.106,950.122,219.767,950.5,222.962Z" transform="translate(-559.817 -203.341)" fill="#b96b6b"/>
      <path id="Trazado_340" data-name="Trazado 340" d="M962.083,373.34s-6.78,26.339-13.53,28.776-3.769,3.128-3.769,3.128" transform="translate(-556.694 -283.576)" opacity="0.1"/>
      <rect id="Rectángulo_76" data-name="Rectángulo 76" width="7.369" height="48.436" transform="translate(398.34 186.251)" fill="#d6d6e3"/>
      <rect id="Rectángulo_77" data-name="Rectángulo 77" width="7.369" height="3.591" transform="translate(398.34 186.251)" opacity="0.1"/>
      <path id="Trazado_341" data-name="Trazado 341" d="M936.57,560.512v1.016a2.382,2.382,0,0,0,2.382,2.382H971.04a2.382,2.382,0,0,0,2.382-2.382v-1.016a2.382,2.382,0,0,0-2.382-2.382H938.952A2.382,2.382,0,0,0,936.57,560.512Z" transform="translate(-552.974 -374.515)" fill="#d6d6e3"/>
      <path id="Trazado_342" data-name="Trazado 342" d="M937.65,559h35.76a2.372,2.372,0,0,0-1.839-.869H939.484A2.372,2.372,0,0,0,937.65,559Z" transform="translate(-553.505 -374.515)" opacity="0.1"/>
      <rect id="Rectángulo_78" data-name="Rectángulo 78" width="60.544" height="5.79" rx="2.895" transform="translate(371.757 232.052)" fill="#d6d6e3"/>
      <circle id="Elipse_73" data-name="Elipse 73" cx="3.687" cy="3.687" r="3.687" transform="translate(425.191 237.842)" fill="#535461"/>
      <circle id="Elipse_74" data-name="Elipse 74" cx="3.687" cy="3.687" r="3.687" transform="translate(371.488 237.842)" fill="#535461"/>
      <circle id="Elipse_75" data-name="Elipse 75" cx="3.687" cy="3.687" r="3.687" transform="translate(398.34 237.842)" fill="#535461"/>
      <rect id="Rectángulo_79" data-name="Rectángulo 79" width="57.913" height="8.949" rx="4.474" transform="translate(394.195 126.758)" fill="#d6d6e3"/>
      <path id="Trazado_343" data-name="Trazado 343" d="M972.969,653.5s-2.9,2.859-7.369,0" transform="translate(-567.26 -421.448)" opacity="0.1"/>
      <path id="Trazado_344" data-name="Trazado 344" d="M1015.354,455.17v.706a3.682,3.682,0,0,1-3.682,3.682H961.122a3.682,3.682,0,0,1-3.682-3.682v-.706Z" transform="translate(-563.245 -323.846)" opacity="0.1"/>
      <rect id="Rectángulo_80" data-name="Rectángulo 80" width="9.96" height="126.899" transform="translate(345.795 139.552)" fill="#d6d6e3"/>
      <rect id="Rectángulo_81" data-name="Rectángulo 81" width="9.96" height="8.228" transform="translate(345.795 139.552)" opacity="0.1"/>
      <rect id="Rectángulo_82" data-name="Rectángulo 82" width="7.369" height="48.436" transform="translate(46.4 189.715)" fill="#d6d6e3"/>
      <rect id="Rectángulo_83" data-name="Rectángulo 83" width="7.369" height="3.591" transform="translate(46.4 189.715)" opacity="0.1"/>
      <path id="Trazado_345" data-name="Trazado 345" d="M280.462,567.362v1.016a2.382,2.382,0,0,1-2.382,2.382H245.992a2.382,2.382,0,0,1-2.382-2.382v-1.016A2.382,2.382,0,0,1,245.992,565H278.08a2.382,2.382,0,0,1,2.382,2.382Z" transform="translate(-211.954 -377.896)" fill="#d6d6e3"/>
      <path id="Trazado_346" data-name="Trazado 346" d="M280.445,565.843H244.68a2.372,2.372,0,0,1,1.839-.843h32.088A2.372,2.372,0,0,1,280.445,565.843Z" transform="translate(-212.48 -377.895)" opacity="0.1"/>
      <rect id="Rectángulo_84" data-name="Rectángulo 84" width="60.544" height="5.79" rx="2.895" transform="translate(19.812 235.516)" fill="#d6d6e3"/>
      <circle id="Elipse_76" data-name="Elipse 76" cx="3.687" cy="3.687" r="3.687" transform="translate(19.548 241.305)" fill="#535461"/>
      <circle id="Elipse_77" data-name="Elipse 77" cx="3.687" cy="3.687" r="3.687" transform="translate(73.246 241.305)" fill="#535461"/>
      <circle id="Elipse_78" data-name="Elipse 78" cx="3.687" cy="3.687" r="3.687" transform="translate(46.395 241.305)" fill="#535461"/>
      <path id="Trazado_347" data-name="Trazado 347" d="M272.64,660.32s2.895,2.859,7.369,0" transform="translate(-226.24 -424.804)" opacity="0.1"/>
      <path id="Trazado_348" data-name="Trazado 348" d="M632.569,323.373s-8.268-15.028-5.246-28.091a25.988,25.988,0,0,0-1.447-16.374A43.7,43.7,0,0,0,622,271.93" transform="translate(-398.168 -233.67)" fill="none" stroke="#535461" stroke-miterlimit="10" stroke-width="2"/>
      <path id="Trazado_349" data-name="Trazado 349" d="M618.543,252.645c.432,1.971-1.879,8.466-1.879,8.466s-4.82-4.926-5.257-6.9a3.652,3.652,0,1,1,7.11-1.569Z" transform="translate(-392.877 -222.632)" fill="#6c63ff"/>
      <path id="Trazado_350" data-name="Trazado 350" d="M635.118,269.716c-.706,1.889-6.176,6.095-6.176,6.095s-1.371-6.755-.66-8.634a3.652,3.652,0,1,1,6.841,2.539Z" transform="translate(-401.158 -230.089)" fill="#6c63ff"/>
      <path id="Trazado_351" data-name="Trazado 351" d="M641.355,305.158c-1.564,1.275-8.405,2.133-8.405,2.133s2.23-6.521,3.794-7.8a3.652,3.652,0,1,1,4.612,5.663Z" transform="translate(-403.556 -246.831)" fill="#6c63ff"/>
      <path id="Trazado_352" data-name="Trazado 352" d="M641.273,334.635c-1.326,1.524-7.923,3.525-7.923,3.525s1.092-6.806,2.418-8.324a3.652,3.652,0,1,1,5.5,4.8Z" transform="translate(-403.753 -261.509)" fill="#6c63ff"/>
      <path id="Trazado_353" data-name="Trazado 353" d="M613.443,283.975c1.717,1.061,8.609,1.016,8.609,1.016s-3.047-6.181-4.764-7.242a3.652,3.652,0,1,0-3.845,6.206Z" transform="translate(-393.064 -236.237)" fill="#6c63ff"/>
      <path id="Trazado_354" data-name="Trazado 354" d="M612.477,317.762c1.955.508,8.522-1.585,8.522-1.585s-4.759-4.987-6.714-5.485a3.652,3.652,0,0,0-1.808,7.07Z" transform="translate(-392.199 -252.706)" fill="#6c63ff"/>
      <path id="Trazado_355" data-name="Trazado 355" d="M617.235,351.084c1.838.823,8.669-.122,8.669-.122s-3.85-5.719-5.688-6.541a3.652,3.652,0,0,0-2.981,6.669Z" transform="translate(-394.758 -269.187)" fill="#6c63ff"/>
      <path id="Trazado_356" data-name="Trazado 356" d="M618.543,252.645c.432,1.971-1.879,8.466-1.879,8.466s-4.82-4.926-5.257-6.9a3.652,3.652,0,1,1,7.11-1.569Z" transform="translate(-392.877 -222.632)" fill="#3dd990"/>
      <path id="Trazado_357" data-name="Trazado 357" d="M635.118,269.716c-.706,1.889-6.176,6.095-6.176,6.095s-1.371-6.755-.66-8.634a3.652,3.652,0,1,1,6.841,2.539Z" transform="translate(-401.158 -230.089)" fill="#3dd990"/>
      <path id="Trazado_358" data-name="Trazado 358" d="M641.355,305.158c-1.564,1.275-8.405,2.133-8.405,2.133s2.23-6.521,3.794-7.8a3.652,3.652,0,1,1,4.612,5.663Z" transform="translate(-403.556 -246.831)" fill="#3dd990"/>
      <path id="Trazado_359" data-name="Trazado 359" d="M641.273,334.635c-1.326,1.524-7.923,3.525-7.923,3.525s1.092-6.806,2.418-8.324a3.652,3.652,0,1,1,5.5,4.8Z" transform="translate(-403.753 -261.509)" fill="#3dd990"/>
      <path id="Trazado_360" data-name="Trazado 360" d="M613.443,283.975c1.717,1.061,8.609,1.016,8.609,1.016s-3.047-6.181-4.764-7.242a3.652,3.652,0,1,0-3.845,6.206Z" transform="translate(-393.064 -236.237)" fill="#3dd990"/>
      <path id="Trazado_361" data-name="Trazado 361" d="M612.477,317.762c1.955.508,8.522-1.585,8.522-1.585s-4.759-4.987-6.714-5.485a3.652,3.652,0,0,0-1.808,7.07Z" transform="translate(-392.199 -252.706)" fill="#3dd990"/>
      <path id="Trazado_362" data-name="Trazado 362" d="M617.235,351.084c1.838.823,8.669-.122,8.669-.122s-3.85-5.719-5.688-6.541a3.652,3.652,0,0,0-2.981,6.669Z" transform="translate(-394.758 -269.187)" fill="#3dd990"/>
      <path id="Trazado_363" data-name="Trazado 363" d="M627.753,408.972h0a8.7,8.7,0,0,1-8.69-9.254L621.5,361.17H634.01l2.432,38.548a8.7,8.7,0,0,1-8.69,9.254Z" transform="translate(-396.714 -277.586)" fill="#6c63ff"/>
      <path id="Trazado_364" data-name="Trazado 364" d="M319.988,442.214l-12.905-8.233c-.066-11.595-.249-65.425,2.164-72.627a11.829,11.829,0,0,0,.1-6.4,18.54,18.54,0,0,0-15.2-13.987,218.463,218.463,0,0,1-25.14-5.409c7.217-.747,12.626-1.392,12.626-1.392l.142-1.336,4.647-.224v-.2l.442-.025c10.853-.645,33.9-2.793,26.069-9.223a18.061,18.061,0,0,0-9.888-3.6c11.305-2.58,28.974-7.578,21.1-12.275-7.486-4.459-18.949-.955-25.79,1.894l-.421.178-.076-.615-2.732.549h0l-.868.173-.041-.894-38.34,5.922a130.88,130.88,0,0,0-1.564-13.108c.858-5.719,4.85-14.058,3.443-18.533-1.635-5.2-8.35-6.9-11.173-11.59-.742-1.224-1.478-2.372-2.2-3.377a35.552,35.552,0,0,0-5.409-5.846,24.684,24.684,0,0,1,1.991-8.761,42.451,42.451,0,0,1,2.682-5.384,18.081,18.081,0,0,0,13.428-20.823c2.428,1.041,5.378,1.148,6.9-.884l-.721-.279a2.289,2.289,0,0,0,.2-.239,13.632,13.632,0,0,1-4.205-2.23,4.927,4.927,0,0,1-.736-1.092c-.7-1.422-.62-3.129-1.29-4.571a5.284,5.284,0,0,0-1.315-1.717,9.055,9.055,0,0,0-4.3-2.458,54.314,54.314,0,0,1-5.521-1.524,18.665,18.665,0,0,0-19.863-5.587l-.635.218a8.283,8.283,0,1,0-16.157-3.657,8.263,8.263,0,0,1,2.216-4.946c-.132.112-.269.218-.4.335a8.289,8.289,0,0,0-.361,11.717l.147.142a8.326,8.326,0,0,0,2.077,1.818,8.289,8.289,0,0,1-5.465-6.79v.508a8.288,8.288,0,0,0,8.812,7.791l.229-.025-.122.168a18.644,18.644,0,0,0,1.676,23.083,8.637,8.637,0,0,0,1.331,2.133,6.911,6.911,0,0,0,.615.62,7.877,7.877,0,0,0,5.312,2.448q.508.6,1.082,1.163a30.231,30.231,0,0,1-1.31,4.185,44.36,44.36,0,0,1-4.022,7.755c-10.97,3.118-11.935,21.747-11.539,22.453.472.843-1.635,30.1,6.491,65.435-.335,10.1,5.556,26.806,26.471,22.4,26.156,1.4,34.734,5.4,34.734,5.4s-2.484,45.491,1.061,52.113c2.219,4.149.645,10.244-1.016,14.546a15.987,15.987,0,0,0-1.463,3.372c-.508,1.072-.879,1.722-.879,1.722h.356c-1.341,4.657-2.29,10.279-2.29,10.279s31.707,6.435,45.653,2.225c5.414-1.635,5.637-3.149,3.88-4.4a28.244,28.244,0,0,0,3.829-.838C340.5,445.662,319.988,442.214,319.988,442.214Z" transform="translate(-194.257 -196.596)" fill="url(#linear-gradient-2)"/>
      <path id="Trazado_365" data-name="Trazado 365" d="M257.567,237.284A18.284,18.284,0,1,1,239.284,219,18.284,18.284,0,0,1,257.567,237.284Z" transform="translate(-200.827 -207.622)" fill="#fa595f"/>
      <path id="Trazado_366" data-name="Trazado 366" d="M374.09,417.736l1.854,9.254s2.062-.371,5.114-1.016c10.427-2.209,32.459-7.664,23.926-12.753-7.339-4.373-18.578-.934-25.282,1.859-2.458,1.016-4.307,1.96-5.135,2.4C374.258,417.639,374.09,417.736,374.09,417.736Z" transform="translate(-276.166 -302.176)" fill="#f8b9bf"/>
      <path id="Trazado_367" data-name="Trazado 367" d="M375.076,424.167l1.331,6.643s2.062-.371,5.114-1.016L380.165,418.9c-2.458,1.016-4.307,1.96-5.135,2.4Z" transform="translate(-276.628 -305.997)" opacity="0.1"/>
      <path id="Trazado_368" data-name="Trazado 368" d="M334.623,412.23l6.369-1.275-1.442-11.636-5.1,1.021Z" transform="translate(-236.495 -286.843)" fill="#d9dfe8"/>
      <path id="Trazado_369" data-name="Trazado 369" d="M334.623,412.752l2.748-.554-.5-11.818-2.417.482Z" transform="translate(-236.495 -287.365)" opacity="0.1"/>
      <path id="Trazado_370" data-name="Trazado 370" d="M248.048,343.053s12.4-6.46,16.9,13.84,4.571,29.553,4.571,29.553l38.558-5.957.6,14.012s-41.443,11.392-46.537,10.2-20.559-29.889-20.559-29.889S227.413,352.495,248.048,343.053Z" transform="translate(-208.621 -268.19)" fill="#312f73"/>
      <g id="Grupo_49" data-name="Grupo 49" transform="translate(29.232 74.902)" opacity="0.1">
        <path id="Trazado_371" data-name="Trazado 371" d="M374.09,417.736l1.854,9.254s2.062-.371,5.114-1.016c10.427-2.209,32.459-7.664,23.926-12.753-7.339-4.373-18.578-.934-25.282,1.859-2.458,1.016-4.307,1.96-5.135,2.4C374.258,417.639,374.09,417.736,374.09,417.736Z" transform="translate(-305.398 -377.078)"/>
        <path id="Trazado_372" data-name="Trazado 372" d="M375.076,424.167l1.331,6.643s2.062-.371,5.114-1.016L380.165,418.9c-2.458,1.016-4.307,1.96-5.135,2.4Z" transform="translate(-305.861 -380.898)" opacity="0.1"/>
        <path id="Trazado_373" data-name="Trazado 373" d="M334.623,412.23l6.369-1.275-1.442-11.636-5.1,1.021Z" transform="translate(-265.728 -361.745)"/>
        <path id="Trazado_374" data-name="Trazado 374" d="M334.623,412.752l2.748-.554-.5-11.818-2.417.482Z" transform="translate(-265.728 -362.267)" opacity="0.1"/>
        <path id="Trazado_375" data-name="Trazado 375" d="M250.048,345.053s12.4-6.46,16.9,13.84,4.571,29.554,4.571,29.554l38.558-5.957.6,14.012s-41.443,11.392-46.537,10.2-20.559-29.889-20.559-29.889S229.413,354.495,250.048,345.053Z" transform="translate(-238.838 -344.076)"/>
      </g>
      <path id="Trazado_376" data-name="Trazado 376" d="M374.594,655.234l15.206,9.65s20.107,3.367,6.43,7.5S351.47,670.2,351.47,670.2s2.362-13.987,4.876-15.841S374.594,655.234,374.594,655.234Z" transform="translate(-265.034 -421.552)" fill="#f37291"/>
      <path id="Trazado_377" data-name="Trazado 377" d="M260.5,452.345s7.583,4.4,21.219,8.517a211.664,211.664,0,0,0,25,5.409,18.187,18.187,0,0,1,14.906,13.713,11.6,11.6,0,0,1-.1,6.277c-2.651,7.933-2.113,73.373-2.113,73.373l-23.789,1.143s3.763-11.89-.874-18.167,3.129-52.174,3.129-52.174-8.426-3.931-34.074-5.3c-24.038,5.079-32.677-21.407-28.685-28.538S260.5,452.345,260.5,452.345Z" transform="translate(-207.317 -322.174)" fill="#96a2d0"/>
      <g id="Grupo_50" data-name="Grupo 50" transform="translate(26.871 129.598)" opacity="0.1">
        <path id="Trazado_378" data-name="Trazado 378" d="M374.594,655.234l15.206,9.65s20.107,3.367,6.43,7.5S351.47,670.2,351.47,670.2s2.362-13.987,4.876-15.841S374.594,655.234,374.594,655.234Z" transform="translate(-291.905 -551.15)"/>
        <path id="Trazado_379" data-name="Trazado 379" d="M260.5,452.345s7.583,4.4,21.219,8.517a211.664,211.664,0,0,0,25,5.409,18.187,18.187,0,0,1,14.906,13.713,11.6,11.6,0,0,1-.1,6.277c-2.651,7.933-2.113,73.373-2.113,73.373l-23.789,1.143s3.763-11.89-.874-18.167,3.129-52.174,3.129-52.174-8.426-3.931-34.074-5.3c-24.038,5.079-32.677-21.407-28.685-28.538S260.5,452.345,260.5,452.345Z" transform="translate(-234.188 -451.772)"/>
      </g>
      <path id="Trazado_380" data-name="Trazado 380" d="M359.674,665.344l15.206,9.65s20.107,3.367,6.43,7.5-44.759-2.184-44.759-2.184,2.362-13.987,4.876-15.841S359.674,665.344,359.674,665.344Z" transform="translate(-257.692 -426.527)" fill="#f37291"/>
      <path id="Trazado_381" data-name="Trazado 381" d="M252.491,495.74c25.648,1.366,34.074,5.3,34.074,5.3s-2.433,44.6,1.016,51.093c3.682,6.887-3.291,19.249-3.291,19.249l23.789-1.143v-2.153c-.071-11.366-.244-64.145,2.118-71.22a11.6,11.6,0,0,0,.1-6.277,18.192,18.192,0,0,0-14.906-13.713,210.389,210.389,0,0,1-25-5.4l-.391-.122c-13.393-4.063-20.823-8.4-20.823-8.4s-15.841-1.1-19.807,6.034c-.508.924-2.7,2.743-2.788,4.21C225.985,483.018,231.577,500.143,252.491,495.74Z" transform="translate(-203.552 -327.645)" fill="#96a2d0"/>
      <path id="Trazado_382" data-name="Trazado 382" d="M351.81,442.193l.452,9.426s2.092-.056,5.211-.244c10.64-.635,33.241-2.737,25.562-9.04-6.6-5.419-18.233-3.692-25.277-1.93-2.585.65-4.571,1.3-5.434,1.61C351.988,442.127,351.81,442.193,351.81,442.193Z" transform="translate(-265.201 -315.729)" fill="#f8b9bf"/>
      <path id="Trazado_383" data-name="Trazado 383" d="M233,296.712s3.047,2.626,6.826,5.531c4.215,1.148,9.142,2.169,12.661,2.844-1.092-4.139-.122-8.634,1.488-12.59a47.586,47.586,0,0,1,6.887-11.432l-21.179-7.654c1.5,4.342.508,9.193-1.1,13.342A44.111,44.111,0,0,1,233,296.712Z" transform="translate(-206.732 -234.398)" fill="#f8b9bf"/>
      <path id="Trazado_384" data-name="Trazado 384" d="M352.06,446.519l.325,6.77s2.092-.056,5.211-.244l.284-10.975c-2.585.65-4.571,1.3-5.434,1.61Z" transform="translate(-265.324 -317.399)" opacity="0.1"/>
      <path id="Trazado_385" data-name="Trazado 385" d="M309.62,434.392l6.486-.31.3-11.722-5.19.249Z" transform="translate(-224.276 -298.182)" fill="#d9dfe8"/>
      <path id="Trazado_386" data-name="Trazado 386" d="M220.805,402.559c13.713,14.256,39.284-2.687,46.161-7.7,1.117-.818,1.742-1.32,1.742-1.32-2.539-2.585-6.6-4.977-8.162-11.453a140.692,140.692,0,0,1-3.017-20.071c-.422-5.358,5.114-15.561,3.514-20.65s-8.187-6.76-10.955-11.366c-.726-1.2-1.447-2.326-2.158-3.311-5.109-7.11-14.012-11.9-14.012-11.9-18.969-6.475-20.457,20.615-19.985,21.458S212.237,366.946,220.805,402.559Z" transform="translate(-197.316 -254.266)" fill="#312f73"/>
      <path id="Trazado_387" data-name="Trazado 387" d="M224.706,381.845s11.016,30.686,15.876,32.621c2.783,1.107,17.964-.086,30.427-1.31,1.117-.818,1.742-1.32,1.742-1.32-2.539-2.585-4.606-7.913-6.161-14.383l-15.993.056s1.3-9.142-.137-29.909-14.652-16.2-14.652-16.2C214,357.649,224.706,381.845,224.706,381.845Z" transform="translate(-201.358 -272.568)" opacity="0.1"/>
      <path id="Trazado_388" data-name="Trazado 388" d="M309.62,434.52l2.8-.132,1.265-11.768-2.463.117Z" transform="translate(-224.276 -298.31)" opacity="0.1"/>
      <path id="Trazado_389" data-name="Trazado 389" d="M236.549,348.8s13.2-4.535,14.652,16.2.152,29.909.152,29.909l39.015-.142-1.5,13.946s-42.662,5.079-47.538,3.154-15.881-32.616-15.881-32.616S214.74,355.055,236.549,348.8Z" transform="translate(-201.723 -271.294)" fill="#312f73"/>
      <path id="Trazado_390" data-name="Trazado 390" d="M247.355,283.095c.706-3.047-2.539-3.144-3.555-6.095l21.189,7.618a47.436,47.436,0,0,0-4.256,6.15,17.834,17.834,0,0,1-3.443.508C252.139,291.53,250.763,286.436,247.355,283.095Z" transform="translate(-212.047 -236.165)" opacity="0.1"/>
      <circle id="Elipse_79" data-name="Elipse 79" cx="17.755" cy="17.755" r="17.755" transform="translate(27.012 18.715) rotate(-2.75)" fill="#f8b9bf"/>
      <path id="Trazado_391" data-name="Trazado 391" d="M253,375.14s5.617,26.608,12.25,29.325,3.626,3.3,3.626,3.3" transform="translate(-216.575 -284.461)" opacity="0.1"/>
      <path id="Trazado_392" data-name="Trazado 392" d="M288.738,399.356s-4.693,1.468-10.158-5.546" transform="translate(-229.163 -293.649)" opacity="0.1"/>
      <circle id="Elipse_80" data-name="Elipse 80" cx="8.126" cy="8.126" r="8.126" transform="translate(16.11 2.744)" fill="#fa595f"/>
      <path id="Trazado_393" data-name="Trazado 393" d="M214.9,215.677a8.126,8.126,0,0,1,0-11.118c-.132.107-.264.213-.386.33a8.127,8.127,0,1,0,11.133,11.844c.127-.117.239-.244.35-.366A8.126,8.126,0,0,1,214.9,215.677Z" transform="translate(-196.377 -200.515)" fill="#fa595f"/>
      <path id="Trazado_394" data-name="Trazado 394" d="M218.613,224.616a8.126,8.126,0,0,1-8.553-7.11v.508A8.127,8.127,0,1,0,226.282,217a4.31,4.31,0,0,0-.056-.508A8.126,8.126,0,0,1,218.613,224.616Z" transform="translate(-195.443 -206.387)" fill="#fa595f"/>
      <path id="Trazado_395" data-name="Trazado 395" d="M256.454,227.561c1.894.935,4.063,1.194,6.095,1.783s4.1,1.666,5,3.586c.655,1.412.579,3.083,1.265,4.479.985,2.032,3.261,2.966,5.353,3.763-1.8,2.412-5.658,1.757-8.177.117s-4.688-4.063-7.618-4.7a7.151,7.151,0,0,0-7.522,3.347,18.065,18.065,0,0,0-1.483,4.611c-1.016,4.124-3.047,8.228-6.6,10.569s-8.852,2.326-11.641-.879c-1.625-1.869-2.169-4.413-2.651-6.841a13.9,13.9,0,0,1-.391-3.459c.163-2.915,2.1-5.4,4.063-7.562,2.311-2.539,4.769-4.977,7.227-7.4,2.123-2.092,4.571-5.637,7.771-5.886C250.827,222.8,253.432,226.083,256.454,227.561Z" transform="translate(-204.31 -209.626)" opacity="0.1"/>
      <path id="Trazado_396" data-name="Trazado 396" d="M255.454,226.561c1.894.934,4.063,1.194,6.095,1.783s4.1,1.666,5,3.586c.655,1.412.579,3.083,1.265,4.48.985,2.031,3.261,2.966,5.353,3.763-1.8,2.412-5.658,1.757-8.177.117s-4.688-4.063-7.618-4.7a7.151,7.151,0,0,0-7.522,3.347,18.066,18.066,0,0,0-1.483,4.612c-1.016,4.124-3.047,8.228-6.6,10.569s-8.852,2.326-11.641-.879c-1.625-1.869-2.169-4.413-2.651-6.841a13.9,13.9,0,0,1-.391-3.459c.163-2.915,2.1-5.4,4.063-7.562,2.311-2.539,4.769-4.977,7.227-7.4,2.123-2.092,4.571-5.637,7.771-5.886C249.827,221.8,252.432,225.083,255.454,226.561Z" transform="translate(-203.818 -209.134)" fill="#fa595f"/>
      <rect id="Rectángulo_109" data-name="Rectángulo 109" width="57.913" height="8.949" rx="4.474" transform="translate(0 130.222)" fill="#d6d6e3"/>
      <path id="Trazado_397" data-name="Trazado 397" d="M181.28,462v.706a3.682,3.682,0,0,0,3.682,3.682h50.549a3.682,3.682,0,0,0,3.682-3.682V462Z" transform="translate(-181.28 -327.207)" opacity="0.1"/>
      <rect id="Rectángulo_110" data-name="Rectángulo 110" width="9.96" height="126.883" transform="translate(101.987 139.552)" fill="#d6d6e3"/>
      <rect id="Rectángulo_111" data-name="Rectángulo 111" width="9.96" height="8.228" transform="translate(101.987 139.552)" opacity="0.1"/>
      <rect id="Rectángulo_112" data-name="Rectángulo 112" width="263.295" height="16.455" transform="translate(97.223 130.456)" fill="#d6d6e3"/>
    </g>
  </g>
</svg>
